<svg version="1.1" xmlns="http://www.w3.org/2000/svg" viewBox="0 0 1092.626759120683 337.3946830250071" width="1092.626759120683" height="337.3946830250071">
  <!-- svg-source:excalidraw -->
  
  <defs>
    <style>
      @font-face {
        font-family: "Virgil";
        src: url("https://unpkg.com/@zsviczian/excalidraw@0.12.0-obsidian-8/dist/excalidraw-assets/Virgil.woff2");
      }
      @font-face {
        font-family: "Cascadia";
        src: url("https://unpkg.com/@zsviczian/excalidraw@0.12.0-obsidian-8/dist/excalidraw-assets/Cascadia.woff2");
      }
    </style>
  </defs>
  <rect x="0" y="0" width="1092.626759120683" height="337.3946830250071" fill="#ffffff"></rect><g transform="translate(451.81010376086044 83.52375908402365) rotate(0 63 12.5)"><text x="0" y="18" font-family="Virgil, Segoe UI Emoji" font-size="20px" fill="#000000" text-anchor="start" style="white-space: pre;" direction="ltr">wasteservice</text></g><g transform="translate(80.68998533511797 87.02999405424077) rotate(0 78.5 12.5)"><text x="0" y="18" font-family="Virgil, Segoe UI Emoji" font-size="20px" fill="#000000" text-anchor="start" style="white-space: pre;" direction="ltr">transporttrolley</text></g><g transform="translate(929.4480722684713 101.34548314748645) rotate(0 58 12.5)"><text x="0" y="18" font-family="Virgil, Segoe UI Emoji" font-size="20px" fill="#000000" text-anchor="start" style="white-space: pre;" direction="ltr">smartdevice</text></g><g stroke-linecap="round"><g transform="translate(881.1199427435484 158.68457399238304) rotate(0 -141.68161127099586 3.329432290287457)"><path d="M-0.08 0.57 C-46.98 1.59, -235.34 5, -282.55 5.87 M-1.58 -0.18 C-48.51 0.97, -236.17 5.73, -283.29 6.84" stroke="#000000" stroke-width="1" fill="none"></path></g><g transform="translate(881.1199427435484 158.68457399238304) rotate(0 -141.68161127099586 3.329432290287457)"><path d="M-254.41 -3.45 C-262.96 -2.48, -268.85 0.02, -282.91 5.48 M-254.41 -3.38 C-263.27 -1.29, -271.48 2.73, -282.67 7.37" stroke="#000000" stroke-width="1" fill="none"></path></g><g transform="translate(881.1199427435484 158.68457399238304) rotate(0 -141.68161127099586 3.329432290287457)"><path d="M-253.9 17.07 C-262.51 13.8, -268.51 12.06, -282.91 5.48 M-253.91 17.13 C-262.74 12.98, -271.11 10.76, -282.67 7.37" stroke="#000000" stroke-width="1" fill="none"></path></g></g><g transform="translate(682.5997098104186 134.72125851384743) rotate(0 67 12.5)"><text x="0" y="18" font-family="Virgil, Segoe UI Emoji" font-size="20px" fill="#000000" text-anchor="start" style="white-space: pre;" direction="ltr">storeRequest</text></g><g stroke-linecap="round"><g transform="translate(612.8895805127036 195.39992585638478) rotate(0 138.07726344152994 -2.1378666760202663)"><path d="M0.07 0.78 C46.19 -0.04, 230.35 -4.31, 276.08 -5.05" stroke="#000000" stroke-width="1.5" fill="none" stroke-dasharray="8 9"></path></g><g transform="translate(612.8895805127036 195.39992585638478) rotate(0 138.07726344152994 -2.1378666760202663)"><path d="M249.4 7.23 C253.53 1.79, 262.74 1.77, 277.65 -4.28" stroke="#000000" stroke-width="1.5" fill="none"></path></g><g transform="translate(612.8895805127036 195.39992585638478) rotate(0 138.07726344152994 -2.1378666760202663)"><path d="M248.99 -13.28 C253.19 -13.63, 262.51 -8.55, 277.65 -4.28" stroke="#000000" stroke-width="1.5" fill="none"></path></g></g><g transform="translate(681.8706730860812 192.87900424104356) rotate(0 65 12.5)"><text x="0" y="18" font-family="Virgil, Segoe UI Emoji" font-size="20px" fill="#000000" text-anchor="start" style="white-space: pre;" direction="ltr">loadAccepted</text></g><g transform="translate(273.04770114917756 139.80730139166434) rotate(0 75.5 12.5)"><text x="0" y="18" font-family="Virgil, Segoe UI Emoji" font-size="20px" fill="#000000" text-anchor="start" style="white-space: pre;" direction="ltr">depositRequest</text></g><g transform="translate(279.9976636470477 209.9991330398123) rotate(0 51.5 12.5)"><text x="0" y="18" font-family="Virgil, Segoe UI Emoji" font-size="20px" fill="#000000" text-anchor="start" style="white-space: pre;" direction="ltr">pickupDone</text></g><g stroke-linecap="round" transform="translate(898.7007337300578 139.2647119386321) rotate(0 91.9630126953125 44.31282043457031)"><path d="M0 0 C0 0, 0 0, 0 0 M0 0 C0 0, 0 0, 0 0 M-0.54 6.22 C1.35 4.02, 3.77 2.57, 4.61 0.51 M-0.66 6.23 C0.9 4.51, 2.89 3.2, 5.13 0.08 M-0.6 10.81 C2.11 9.94, 4.39 8.19, 9.93 1.15 M-0.53 12.38 C3.9 7.28, 7.82 3.77, 10.98 0.66 M0.14 18.47 C4.46 14.09, 10.96 6.78, 15.54 -0.35 M-0.54 18.28 C5.84 10.93, 12.15 6.19, 14.72 0.52 M2.12 24.48 C3.5 17.5, 8.47 14.12, 19.51 0.69 M0.55 23.36 C7.24 15.22, 13.77 8.43, 21.9 0.83 M-1.56 29.87 C5.8 25.39, 12.23 16.23, 24.5 1.88 M-0.25 31.23 C4.81 24.31, 11.8 18.12, 25.68 -0.6 M-0.79 35.12 C11.17 24.09, 25.43 8.31, 32.67 -1.92 M0.6 37.43 C8 26.14, 19.05 14.54, 32.72 0.02 M-1.28 41.81 C9.21 32.1, 17.48 19.15, 35.56 1.46 M-0.18 42.37 C8.32 32.76, 17.92 24.57, 37.85 0.29 M0.81 48.55 C12.17 35.63, 25.56 18.5, 40.64 -0.87 M-0.78 49.31 C11.38 36.13, 22.59 23.17, 42.16 0.26 M0.76 53.42 C14.67 38.92, 28.91 21.05, 49.4 0.87 M1.12 53.72 C12.28 38.91, 27.27 23.97, 47.61 0.15 M-0.67 61.64 C10.61 46.3, 23.66 33.86, 51.87 0.79 M0.94 60.94 C18.05 41.25, 34.49 20.94, 53.1 -1.08 M0.72 68.05 C15.01 50.8, 32.25 29.1, 56.72 1.06 M0.67 67.59 C19.19 44.84, 38.63 22.92, 59.08 -0.01 M1.86 72.98 C16.65 53.08, 36.2 30.7, 61.82 1.52 M0.7 73.48 C14.83 56.55, 30.9 38.1, 63.64 -0.14 M-0.23 80.25 C23.85 53.52, 46.61 25.23, 68.27 -0.54 M0.71 78.53 C19.57 55.74, 39.21 33.63, 69.1 -0.19 M-0.5 85.6 C22.23 59.97, 44.48 35.68, 75.01 -0.78 M0.13 85.14 C27.33 54.27, 53.89 23.67, 74.11 0.5 M-0.56 88.81 C24.62 64.54, 47.83 39.21, 80.83 -0.04 M1.03 89.37 C22.41 66.06, 45.3 40.56, 80.25 -0.35 M7.96 89.47 C28.75 62.79, 56.07 32.98, 86.97 1.27 M7.2 88.58 C34.3 57.31, 63.08 25.9, 84.09 0.72 M11.52 89.67 C34.92 62.84, 59.94 32.81, 91.18 -1.08 M11.89 89.16 C31.7 67.58, 51.18 47.13, 89.84 0.55 M17.8 89.61 C45.47 59.51, 70.98 28.73, 94.27 -1.5 M17.4 90.06 C41.33 63.14, 65.8 34.46, 95.38 -0.03 M23.77 89.86 C41.35 66.18, 64.44 40.89, 102.18 -0.83 M22.73 90.07 C46.35 61.66, 70.07 34.76, 100.91 -0.45 M27.64 91.75 C54.42 59.18, 83.58 26.17, 104.52 -0.75 M28.01 90.11 C56.11 56.09, 86.39 21.42, 107.01 0.18 M32.17 91.32 C61.95 57.34, 91.38 26.32, 112.68 0 M33.39 90.22 C48.8 70.47, 65.6 52.52, 111.26 0.75 M38.03 91.3 C61.66 62.95, 83.26 38.83, 117.68 0.03 M38.92 89.46 C63.58 60.3, 87.46 30.69, 115.62 -0.44 M45.71 91.47 C67.01 61.03, 92.91 34.2, 123.58 -0.8 M43.97 89.27 C66.15 63.84, 87.43 40.04, 122.39 0.22 M49.58 88.41 C71.59 62.63, 95.55 38.29, 126.74 0.6 M49.82 89.16 C66.62 69.35, 87.01 48.34, 127.01 0.57 M56.44 89.17 C83.38 56.73, 113.55 21.92, 131.8 -1.02 M53.78 89.37 C73.55 67.45, 93.15 44.62, 132.56 -0.93 M59.6 90.95 C77.72 67.25, 99.59 44.22, 135.72 -1.57 M59.77 90.5 C90.75 54.87, 121 19.05, 137.28 -0.54 M65.42 90.77 C91.51 60.3, 117.28 31.5, 144.32 0.06 M64.39 90.2 C86.16 65.45, 108.1 40.93, 143.75 0.42 M71.42 89.23 C91.89 68.42, 109.53 47.56, 148.36 -0.29 M69.56 90.79 C97.94 57.87, 126.03 24.78, 148.41 0.23 M76.77 88.09 C95.44 65.2, 115.84 42.05, 152.12 -0.39 M76.57 89.94 C95.45 64.66, 117.04 42.11, 154.68 0.41 M80.41 90.06 C105.55 62.3, 128.14 35.65, 157.41 2.09 M80.72 90.34 C104.55 61.54, 128.55 35.15, 158.59 0.4 M87.6 88.41 C117.87 54.51, 144.34 20.69, 164.21 1.27 M87.36 90.31 C116.66 54.73, 146.66 19.06, 163.81 -0.82 M91.96 90.71 C113 66.93, 130.28 42.58, 170.66 0.71 M90.53 89.5 C117.56 59.45, 144.46 30.53, 169.29 -0.01 M98.07 88.48 C114.57 65.85, 137.09 42.36, 173.66 1.15 M97.02 89.52 C125.54 56.82, 155.6 23.96, 174.33 -0.09 M103.51 88.91 C124.79 64.29, 147.28 38.34, 180.93 2.16 M102.98 89.62 C126.11 63.01, 150.8 34.44, 180.18 0.58 M109.4 88.52 C132.02 62.13, 158.05 34.08, 186.9 -1.41 M108.03 89.32 C137.78 54.8, 166 22.94, 184.49 0.54 M114.51 88.87 C138.71 60.72, 168.73 28.65, 186.16 5.29 M111.81 90.08 C126.93 73.05, 143.41 55.63, 184.27 7 M117.79 90.22 C144.82 58.12, 169.69 32.27, 185.19 11.95 M118.12 89.95 C140.01 65.91, 161.21 40.52, 184.12 12.58 M124.45 91.26 C136.74 75.37, 150.84 56.16, 184.55 20.13 M123.49 89.25 C137.82 72.86, 152.6 57.37, 184.02 19.34 M128.51 90.74 C148.27 66.49, 169.02 43.2, 184.84 25.93 M129.26 89.19 C149.83 65.86, 172.87 40.67, 183.76 25.41 M134.86 91.22 C144.11 77.14, 153.32 66.15, 184.6 30.39 M134.21 89.55 C147.07 74.81, 159.26 59.26, 184.41 30.4 M137.83 88.7 C152.4 74.81, 164.25 62.11, 186.37 39.25 M138.64 89.32 C151.67 75.06, 166 60.28, 184.89 37.03 M143.28 88.36 C157.13 74.81, 171.04 59.77, 182.59 45.31 M144.93 90.38 C160.46 73.25, 173.65 55.28, 185.4 44.55 M150.44 90.96 C161.4 80.36, 169.12 66.54, 184.98 48.39 M149.03 90.89 C163.13 73.34, 178.08 57.17, 185.35 48.67 M153.31 88.77 C166.38 80.01, 174.97 65.21, 183.83 57.31 M154.31 89.18 C166.62 77.84, 175.44 66.03, 184.16 56.42 M159.98 91.56 C167.51 83.35, 172.74 75.41, 183.93 62.26 M160.42 90.71 C166.26 83.02, 172.29 75.99, 185.75 60.6 M164.56 90.99 C171.96 81.08, 179.4 74.09, 184.65 68.55 M165.76 90.41 C169.44 84.06, 174.25 79.32, 184.11 68.4 M171.19 90.3 C173.9 86.43, 179.35 81.05, 183.82 73 M171.04 89.37 C174.22 86.66, 177.91 83.74, 183.76 73.85 M175.27 88.63 C179.2 87.23, 182.74 82.31, 185.04 81.21 M176.41 90.24 C178.17 87.69, 180.53 85.26, 184.7 80.4 M181.15 90.49 C182.5 89.68, 182.39 88.93, 184.32 86.49 M181.29 89.88 C182.23 88.93, 183.14 88.25, 184.43 86.29" stroke="#7950f2" stroke-width="0.5" fill="none"></path><path d="M0.09 0.7 C72.8 0.92, 141.11 -0.89, 185.38 -0.41 M0.06 -0.92 C44.15 0.96, 88.7 -0.6, 183.92 -0.7 M185.12 0 C184.84 22.88, 181.47 50.44, 183.15 87.37 M183.81 -0.44 C184.34 31.43, 183.65 61.65, 184.63 89.51 M182.08 86.71 C129.44 90.14, 70.9 90.87, -1.45 89.35 M183.1 89.06 C109.51 89.91, 37.4 89.37, 0.67 89.26 M-0.15 88.42 C-0.49 56.24, 0.22 23.51, 1.01 1.21 M0.02 88.61 C-0.2 59.18, 0.23 29.2, -0.72 0.52" stroke="#000000" stroke-width="1" fill="none"></path></g><g stroke-linecap="round" transform="translate(10 10) rotate(0 372.28731356163405 158.69734151250356)"><path d="M0.19 -0.51 C175.85 1.27, 350.34 1.96, 744.31 0.34 M-0.28 0.14 C185.84 0.73, 371.64 1.23, 744.38 0.06 M744.46 -1.07 C744.38 124.85, 743.54 249.56, 743.39 316.06 M744.54 -0.41 C743.85 65.68, 743.32 132.09, 744.25 317.85 M744.9 316.96 C524.49 315.57, 304.21 314.66, 0.72 317.73 M744.55 317.21 C472.7 317.29, 201.22 317.1, -0.11 317.27 M-1.09 316.53 C-1.36 251.34, -0.96 184.13, -0.71 1.29 M-0.03 317.38 C-0.51 215.31, -0.99 113.78, 0.44 -0.15" stroke="#000000" stroke-width="1" fill="none"></path></g><g transform="translate(281.97937647197347 10.222988282101653) rotate(0 79 12.5)"><text x="0" y="18" font-family="Virgil, Segoe UI Emoji" font-size="20px" fill="#000000" text-anchor="start" style="white-space: pre;" direction="ltr">ctxwasteservice</text></g><g stroke-linecap="round" transform="translate(443.11512623676356 134.8105592509864) rotate(0 71.4168701171875 70.61494445800781)"><path d="M24.45 17.28 C24.45 17.28, 24.45 17.28, 24.45 17.28 M24.45 17.28 C24.45 17.28, 24.45 17.28, 24.45 17.28 M8.55 43.19 C18.59 29.64, 30.02 19.99, 33.46 9.69 M7.03 42.9 C15.81 33.62, 23.22 24.41, 33.94 11.97 M4.38 50.08 C21.31 33.74, 33.41 18.71, 42.93 6.73 M4.74 51.16 C14.7 41.05, 23.85 31.88, 43.94 6.68 M1.9 59.42 C23.95 37.02, 39.89 17.43, 52.39 5.4 M3.06 60.02 C18.92 43.09, 33.82 25.67, 51.5 4.53 M2.88 65.92 C12.4 54.03, 24.64 38.87, 59 4.17 M0.81 68.25 C16.47 49.09, 32.03 31.96, 57.89 3.83 M-0.09 73.85 C22.53 50.99, 45.57 23.62, 61.22 3.15 M0.42 74.39 C15.49 56.39, 33.16 37.99, 64.12 2.48 M3.4 80.61 C27.24 48.05, 52.59 20.07, 68.57 1.88 M1.78 78.8 C16.27 62.01, 29.66 48.06, 68.65 3.35 M4.07 82.32 C20.35 69.16, 34.9 52.48, 75.28 4.43 M2.74 84.86 C29.3 54.82, 53.89 25.06, 74.06 1.86 M5.74 90.58 C22.08 67.29, 42.4 47.51, 81.35 1.4 M4.93 88.21 C20.84 71.34, 36.25 52.49, 80.02 3.56 M7.19 94.29 C31.82 66.63, 55.13 39.36, 86.83 2.28 M5.47 92.12 C25.25 70.64, 44.25 48.66, 84.57 2.98 M7.77 97.26 C29.32 68.76, 56.05 40.99, 87.6 3.53 M7.68 97.62 C27.48 73.66, 48.43 49.98, 87.88 5.26 M9.13 102.96 C38.77 68.37, 70.71 30.76, 91.61 6.07 M8.66 101.79 C32.88 75.55, 55.89 49.8, 91.44 6.17 M8.84 108.12 C26.76 85.04, 45.81 67.53, 98.67 7.4 M9.98 105.89 C42.96 71.12, 74.88 33.51, 95.78 7.75 M13.5 108.78 C44.54 75.27, 76.67 37.58, 99.42 9.64 M12.68 110.95 C36.17 82.47, 58.49 55.44, 100.52 8.93 M15.04 114.87 C49.32 77.18, 82.36 36.8, 105.69 11.61 M14.57 112.84 C50.09 72.63, 85 33.27, 104.58 11.04 M19.1 117.01 C37.28 92.93, 57.2 71.89, 108.9 10.13 M18.6 116.68 C46.12 81.54, 75.63 49.06, 107.6 11.77 M20.68 117.31 C50.98 83.67, 84.61 44.91, 110.98 11.32 M21.44 118.08 C57.68 77.16, 92.13 35.89, 112.85 13.89 M24.54 120.71 C49.94 88.7, 80 58.4, 114.19 16.72 M23.88 122.08 C57.21 83.87, 90.91 44.83, 115.98 15.95 M26.17 124.24 C51.39 98.45, 71.93 70.45, 117.33 17.01 M26.74 124.92 C46.42 100.35, 69.39 76.03, 119.22 17.55 M28.21 128.43 C58.39 91.91, 89.73 58.71, 122.21 21.39 M29.29 128.94 C53.9 97.99, 79.1 70.36, 120.82 21.23 M33.39 130.5 C63.18 92.75, 94.44 56.31, 123.28 26.38 M31.14 130.4 C53.44 105.61, 76.98 78.65, 124.6 24.75 M34.29 134.27 C62.56 103.78, 87.06 74.9, 126.68 28.37 M35.95 132.8 C64.95 99.52, 92.82 66.83, 126.07 28.29 M38.32 131.93 C63.45 109, 82.24 82.95, 129.2 30.93 M39.42 133.28 C70.74 96.63, 102.87 60.24, 129.28 31.19 M44.1 134.86 C69.76 104.3, 94.92 74.8, 132.76 34.17 M43.65 134.93 C70.66 103.88, 97.47 72.61, 132.25 33.85 M49.13 136.45 C72.92 105.29, 100.86 75.44, 135.26 37.96 M47.66 136.12 C75.96 103.75, 104.2 69.9, 135.88 36.56 M50.14 139.38 C82.2 104.2, 110.63 71.57, 137.12 39.34 M51.9 139.35 C74.19 110.07, 97.96 83.8, 137.36 39.35 M56.11 140.98 C78.12 114.47, 98.44 90.47, 138.8 45.29 M56.07 139.14 C83.42 108.93, 109.16 79.02, 139.74 44.31 M61.31 139.76 C87.34 107.46, 116.38 76.8, 139.26 49.5 M60.21 140.05 C91.83 104.9, 122.24 69.18, 139.31 48.97 M64.98 142.23 C93.3 108.14, 119.37 79.16, 142.26 53.02 M65.33 140.08 C93.66 108.39, 120.95 78.39, 141.88 54.36 M71.68 142.22 C91.83 115.67, 113.48 90.71, 143.4 56.24 M69.74 141.49 C99.44 107.53, 128.93 75.32, 142.79 57.61 M77.65 140.69 C90.76 122.92, 105.35 106.51, 145.84 62.52 M76.36 141.16 C92.93 119.39, 109.71 100.76, 144.61 63.08 M83.14 141.02 C103.47 117.36, 123.6 91.72, 143.29 69.71 M81.05 139.4 C95.9 125.07, 109.68 108.55, 145.05 68.41 M86.8 141.38 C100.82 124, 115.19 106.28, 142.36 75.23 M87.93 138.84 C102.51 121.06, 117.81 104.76, 141.37 77.15 M93.38 142.22 C101.65 130.43, 113.37 117.8, 141.53 83.12 M91.05 141.49 C109.78 119.2, 129.79 98.34, 140.22 84.28 M102.58 135.09 C112.69 120.25, 125.76 106.37, 139.6 91.84 M102.26 136.04 C112.89 123.56, 121.49 111.73, 138.16 93.66 M111.06 130.56 C120.99 122.1, 127.63 112.77, 136.68 99.63 M111.15 131.35 C118.81 121.7, 128.81 111.14, 137.48 99.79" stroke="#fab005" stroke-width="0.5" fill="none"></path><path d="M51.16 2.76 C60.14 -0.77, 72.79 -0.39, 83.18 1.36 C93.57 3.1, 104.91 7.3, 113.5 13.25 C122.09 19.2, 129.75 27.97, 134.72 37.07 C139.68 46.16, 143.01 57.61, 143.3 67.8 C143.6 78, 140.43 88.94, 136.48 98.21 C132.52 107.49, 127.34 116.69, 119.57 123.45 C111.8 130.21, 99.97 136.01, 89.83 138.77 C79.69 141.53, 68.88 141.7, 58.73 140 C48.58 138.3, 37.38 134.4, 28.92 128.58 C20.46 122.76, 12.91 114.31, 7.98 105.1 C3.05 95.88, -0.41 83.71, -0.67 73.29 C-0.93 62.86, 2.23 51.89, 6.42 42.56 C10.6 33.23, 16.46 23.99, 24.44 17.3 C32.42 10.6, 48.75 4.96, 54.3 2.4 C59.84 -0.17, 57.44 0.93, 57.72 1.88 M37.12 7.16 C45.6 1.83, 59.08 -0.84, 69.56 -0.97 C80.04 -1.1, 90.76 2.2, 99.97 6.41 C109.18 10.62, 117.85 16.38, 124.81 24.29 C131.77 32.21, 138.82 43.96, 141.75 53.9 C144.67 63.85, 144.34 74.15, 142.37 83.99 C140.41 93.83, 136.15 104.68, 129.96 112.96 C123.76 121.24, 114.54 129.06, 105.21 133.66 C95.88 138.25, 84.68 140.31, 73.97 140.54 C63.25 140.78, 50.48 138.99, 40.93 135.05 C31.38 131.1, 23.14 124.66, 16.68 116.89 C10.21 109.13, 4.62 98.43, 2.15 88.44 C-0.32 78.46, -0.29 66.86, 1.84 56.98 C3.97 47.1, 8.99 37.53, 14.93 29.18 C20.86 20.83, 33.37 10.3, 37.45 6.9 C41.53 3.5, 38.69 7.63, 39.41 8.77" stroke="#000000" stroke-width="1" fill="none"></path></g><g stroke-linecap="round"><g transform="translate(491.35841593504415 138.18826716619674) rotate(0 17.150583109181724 13.366987639861776)"><path d="M1.05 -0.29 C6.87 4.56, 28.72 23.5, 34.16 28.22 M0.15 -1.49 C5.97 3.09, 28.27 21.87, 33.77 26.43" stroke="#000000" stroke-width="1" fill="none"></path></g></g><g stroke-linecap="round"><g transform="translate(494.0744362965378 138.07818541875503) rotate(0 16.380771207030193 -11.464756346984473)"><path d="M0.45 0.89 C3.49 -0.93, 11.62 -7.14, 17.13 -11.26 C22.64 -15.38, 30.64 -21.49, 33.53 -23.81 M-0.77 0.3 C2.21 -1.81, 10.67 -9.18, 16.2 -12.96 C21.73 -16.73, 29.3 -20.37, 32.41 -22.33" stroke="#000000" stroke-width="1" fill="none"></path></g></g><g stroke-linecap="round"><g transform="translate(526.9401561349589 115.94672474848596) rotate(0 -0.355007191339169 24.847727920535192)"><path d="M0.89 0.57 C0.67 8.71, -0.58 40.82, -1 48.9 M-0.1 -0.18 C-0.45 8.07, -1.22 41.53, -1.6 49.87" stroke="#000000" stroke-width="1" fill="none"></path></g></g><g stroke-linecap="round" transform="translate(78.41761496726741 136.30966635099554) rotate(0 71.4168701171875 70.61494445800781)"><path d="M28.08 15.13 C28.08 15.13, 28.08 15.13, 28.08 15.13 M28.08 15.13 C28.08 15.13, 28.08 15.13, 28.08 15.13 M10.36 41.62 C17.8 33.24, 22.92 25.25, 37.05 9.16 M9.68 42.43 C18.12 33.71, 25.05 24.61, 37.37 10.97 M7.49 50.65 C21.86 37.85, 33.47 19.7, 45.96 5.49 M8.36 50.89 C16.62 38.76, 26.71 27, 45.98 6.06 M3.83 57.62 C23.25 39.17, 40.53 17.9, 53.42 1.66 M5.93 59.8 C22.94 40.21, 39.4 19.42, 54 2.45 M1.82 70.77 C14.49 54.65, 28.38 35.85, 58.05 5.42 M1.64 71.43 C23.49 45.23, 47.41 17.87, 58.95 3.63 M1.78 74.85 C13.98 59.78, 28.09 46.98, 64.35 5.94 M0.99 74.9 C18.35 57.44, 34.09 38.53, 63.09 4.87 M3.16 82.67 C19.89 62.62, 33.41 46.22, 68.43 3.83 M2.16 81.02 C28.55 51.6, 54.43 22.67, 69.43 3.47 M6.32 83.17 C32.74 54.31, 58.86 20.12, 75.44 5.82 M4.16 84.54 C31.74 55.28, 58.3 24.4, 74.44 4.65 M6.82 89.43 C28.48 62.47, 50.76 39.18, 79.64 5.19 M6.34 89.39 C24.63 69.39, 44.18 46.84, 80.36 4.14 M8.2 94.28 C27.38 68.21, 48.33 46.28, 85.97 5.94 M7.48 94.54 C33.92 63.03, 62.04 32.08, 84.09 5.69 M6.76 98.8 C34.21 71.42, 58.03 42.59, 92.73 4.23 M7.86 99.64 C39.27 62.75, 68.92 29.26, 90.18 4.6 M11.14 102 C31.83 76.42, 53.71 53.41, 93.29 5.13 M11.05 103.01 C41.88 68.34, 71.87 31.09, 95.73 5.76 M11.68 107.98 C44.07 67.04, 79.11 32.68, 97.27 8.43 M12.68 105.95 C40.68 74.57, 68.74 41.39, 97.97 7.71 M14.67 109.15 C38.73 81.86, 59.56 58.51, 100.23 9.46 M14.85 110.24 C47.39 73.77, 77.92 38.42, 101.13 8.56 M19.75 113.39 C40.64 88.84, 60.85 64.99, 107.12 12.17 M18.85 112.44 C41.24 84.19, 64.39 55.95, 106.2 11.43 M21.46 116.03 C43.94 83.3, 71.8 54.66, 111.01 11.42 M21.04 116.16 C40.45 91.74, 58.63 70.89, 108.99 13.86 M23.97 117.46 C45.94 92.29, 71.4 64.33, 114 13.08 M22.8 118.86 C59.13 76.3, 93.78 34.96, 113.25 14.15 M23.28 122.39 C44.61 100.03, 65.26 78.14, 117.98 16.27 M25.03 123.34 C56.5 85.04, 87.52 49.52, 116.75 16.86 M26.06 126.03 C54 95.53, 79.89 65.3, 120.78 18.26 M26.27 127.09 C46.96 104.1, 67.24 80.08, 119.72 19.88 M30.33 129.71 C66.36 88.35, 101.74 44.57, 120.32 23.21 M29.69 128.22 C56.65 97.39, 84.31 64.88, 122.24 22.41 M33.14 131.41 C63.57 97.27, 90.67 61.05, 123.41 26.29 M33.97 129.13 C62.06 99.59, 87.29 70.28, 125.38 25.29 M39.24 129.41 C63.32 103.08, 87.03 73.81, 127.26 29.43 M38.38 130.39 C70.43 94.84, 104.35 57.24, 125.93 29.98 M41.91 134.19 C64.98 106.94, 87.2 82.26, 129.59 31.94 M42.78 133.92 C71.96 100.79, 99.87 68.69, 130.84 31.41 M45.15 135.68 C66.49 111.87, 82.42 90.74, 132.82 35.8 M46.12 134.36 C81.36 95.32, 115.93 57.14, 132.66 36.43 M51.12 136.63 C67.64 114.99, 90.25 90.93, 132.84 37.23 M49.19 137.76 C69.03 113.46, 90.53 90.32, 134.59 39.69 M53.62 136.13 C74.73 117.39, 92.05 93.65, 135.83 43.19 M54.35 137.24 C81.36 106.57, 110.87 74.79, 138.63 41.28 M57.62 139.48 C88.2 104.93, 120.71 69.49, 139.81 47.37 M56.38 140.11 C83.07 109.39, 112 78.09, 139.33 46.95 M59.97 141.38 C80.15 119.41, 99.04 97.01, 141.29 51.22 M61.41 141.3 C85.26 111.83, 110.29 83.12, 139.82 50.44 M66.34 139.41 C91.67 112.7, 111.11 88.15, 141.57 55.82 M67.18 140.03 C89.09 114.5, 113.53 87.11, 140.29 55.43 M72.63 140.96 C88.24 124.07, 99.45 105.46, 143.51 61.67 M72.77 140.94 C96.69 113.39, 121.06 84.64, 142.09 60.68 M78.42 142.38 C91.8 126.19, 106.98 108.79, 144.3 64.97 M77.23 140.51 C93.4 122.55, 109.38 105.66, 142.82 66.47 M82.53 139.2 C96.63 125.26, 114.13 105.19, 141.68 72.54 M83.53 141.46 C98.95 121.99, 116.46 101.57, 143.75 70.7 M86.41 143.04 C98.72 129.84, 110.15 116.16, 142.69 77.99 M87.14 140.92 C107.97 117.84, 129.27 93.36, 140.92 79.35 M96.3 136.31 C111.25 120.38, 123.95 104.57, 137.81 88.13 M96.54 137.29 C112.42 117.72, 129.5 98.66, 138.52 88.09 M106.17 131.95 C114.21 122.61, 126.65 109.99, 139.13 94.21 M105.41 133.24 C111.34 125.02, 119.52 117.7, 137.36 95.7" stroke="#fab005" stroke-width="0.5" fill="none"></path><path d="M55.53 2.33 C64.89 -0.67, 78.91 -0.05, 89.1 2.26 C99.28 4.58, 108.78 9.77, 116.65 16.2 C124.52 22.62, 131.95 31.67, 136.32 40.82 C140.69 49.98, 142.9 61.07, 142.86 71.12 C142.82 81.18, 140.58 92.01, 136.08 101.15 C131.58 110.3, 124.29 119.73, 115.87 125.99 C107.45 132.26, 95.89 136.71, 85.58 138.76 C75.27 140.81, 63.95 140.5, 54 138.3 C44.06 136.1, 33.65 131.9, 25.91 125.56 C18.18 119.22, 12.01 109.49, 7.58 100.27 C3.15 91.05, -0.66 80.43, -0.66 70.25 C-0.67 60.06, 2.77 48.34, 7.56 39.15 C12.35 29.96, 19.48 21.32, 28.11 15.1 C36.73 8.89, 53.81 4.06, 59.29 1.84 C64.77 -0.37, 61 0.9, 60.98 1.8 M67.87 0.67 C77.65 -0.8, 88.61 0.81, 98.4 4.49 C108.2 8.16, 119.46 14.78, 126.63 22.73 C133.8 30.68, 138.86 42.21, 141.45 52.17 C144.03 62.13, 144.11 72.28, 142.13 82.48 C140.15 92.68, 135.83 105.22, 129.57 113.39 C123.31 121.56, 113.5 126.65, 104.54 131.5 C95.59 136.35, 86.18 141.82, 75.85 142.48 C65.52 143.15, 52.45 139.66, 42.56 135.51 C32.67 131.36, 23.4 125.34, 16.5 117.59 C9.6 109.84, 3.51 98.83, 1.16 88.99 C-1.19 79.15, 0.27 68.36, 2.41 58.56 C4.56 48.76, 8.04 38.5, 14.03 30.19 C20.02 21.89, 29.54 13.54, 38.36 8.74 C47.19 3.95, 62.02 2.57, 66.96 1.41 C71.9 0.25, 67.49 0.65, 68.01 1.78" stroke="#000000" stroke-width="1" fill="none"></path></g><g stroke-linecap="round"><g transform="translate(126.660904665548 139.68737426620584) rotate(0 16.60011238053103 13.489702647152)"><path d="M-1.04 -0.51 C4.67 4.21, 28.73 22.54, 34.24 27.38 M0.62 -1.82 C6.27 3.17, 28.27 24.06, 33.9 28.8" stroke="#000000" stroke-width="1" fill="none"></path></g></g><g stroke-linecap="round"><g transform="translate(129.37692502704164 139.57729251876418) rotate(0 16.743026988984347 -12.006394071622452)"><path d="M-0.51 1.16 C5.32 -2.86, 28.06 -21.14, 33.99 -25.18 M1.43 0.73 C7.16 -3.09, 27.37 -19.93, 32.93 -24.19" stroke="#000000" stroke-width="1" fill="none"></path></g></g><g stroke-linecap="round"><g transform="translate(162.24264486546275 117.44583184849506) rotate(0 -0.7641934537530304 24.750873743939394)"><path d="M1.16 -0.22 C0.89 8.35, -2.41 42.46, -2.69 50.88 M0.31 -1.38 C0.49 6.9, -0.35 40.97, -0.53 49.23" stroke="#000000" stroke-width="1" fill="none"></path></g></g><g stroke-linecap="round"><g transform="translate(607.8564838518116 234.90502442785424) rotate(0 136.97141705222845 -2.4714590296829044)"><path d="M-0.52 -0.88 C45.16 -1.37, 228.61 -3.67, 274.46 -4.06" stroke="#000000" stroke-width="1.5" fill="none" stroke-dasharray="8 9"></path></g><g transform="translate(607.8564838518116 234.90502442785424) rotate(0 136.97141705222845 -2.4714590296829044)"><path d="M244.91 4.83 C255.92 1.65, 266.65 0.79, 276.36 -5.88" stroke="#000000" stroke-width="1.5" fill="none"></path></g><g transform="translate(607.8564838518116 234.90502442785424) rotate(0 136.97141705222845 -2.4714590296829044)"><path d="M244.69 -15.69 C255.58 -12.05, 266.38 -6.1, 276.36 -5.88" stroke="#000000" stroke-width="1.5" fill="none"></path></g></g><g transform="translate(684.988764653586 235.23987197065816) rotate(0 64 12.5)"><text x="0" y="18" font-family="Virgil, Segoe UI Emoji" font-size="20px" fill="#000000" text-anchor="start" style="white-space: pre;" direction="ltr">loadRejected</text></g><g stroke-linecap="round"><g transform="translate(435.0563964968294 169.65246151047455) rotate(0 -100.31157584036409 -0.3848895748534744)"><path d="M0.65 -0.12 C-33.03 -0.41, -167.64 -0.89, -201.27 -0.79 M-0.47 -1.22 C-33.85 -1.44, -166.01 0.51, -199.04 0.47" stroke="#000000" stroke-width="1" fill="none"></path></g><g transform="translate(435.0563964968294 169.65246151047455) rotate(0 -100.31157584036409 -0.3848895748534744)"><path d="M-171.13 -11.54 C-182.07 -7.33, -190.27 -0.42, -199.46 2.46 M-169.95 -9.79 C-176.84 -7.44, -183.43 -4.95, -198.6 0.89" stroke="#000000" stroke-width="1" fill="none"></path></g><g transform="translate(435.0563964968294 169.65246151047455) rotate(0 -100.31157584036409 -0.3848895748534744)"><path d="M-170.97 8.98 C-182.13 5.64, -190.4 4.99, -199.46 2.46 M-169.79 10.73 C-176.88 8.35, -183.51 6.1, -198.6 0.89" stroke="#000000" stroke-width="1" fill="none"></path></g></g><g stroke-linecap="round"><g transform="translate(240.84932786249328 204.1660060853464) rotate(0 92.93934897796511 0.05815961995791952)"><path d="M-0.57 -0.87 C30.39 -0.53, 155.23 0.72, 186.45 0.99" stroke="#000000" stroke-width="1.5" fill="none" stroke-dasharray="8 9"></path></g><g transform="translate(240.84932786249328 204.1660060853464) rotate(0 92.93934897796511 0.05815961995791952)"><path d="M156.71 10.32 C170.18 7.34, 180.01 4.16, 186.44 0.83" stroke="#000000" stroke-width="1.5" fill="none"></path></g><g transform="translate(240.84932786249328 204.1660060853464) rotate(0 92.93934897796511 0.05815961995791952)"><path d="M156.9 -10.2 C170.13 -5.77, 179.89 -1.54, 186.44 0.83" stroke="#000000" stroke-width="1.5" fill="none"></path></g></g></svg>