<svg version="1.1" xmlns="http://www.w3.org/2000/svg" viewBox="0 0 727.6134653233074 515.6688016795694" width="727.6134653233074" height="515.6688016795694">
    <!-- svg-source:excalidraw -->

    <defs>
        <style>
        @font-face {
          font-family: "Virgil";
          src: url("https://unpkg.com/@zsviczian/excalidraw@0.12.0-obsidian-10/dist/excalidraw-assets/Virgil.woff2");
        }
        @font-face {
          font-family: "Cascadia";
          src: url("https://unpkg.com/@zsviczian/excalidraw@0.12.0-obsidian-10/dist/excalidraw-assets/Cascadia.woff2");
        }
      </style>
    </defs>
    <rect x="0" y="0" width="727.6134653233074" height="515.6688016795694" fill="#ffffff"></rect>
    <g stroke-linecap="round" transform="translate(285.63106557360663 10) rotate(0 27.642333984374996 27.069686889648438)">
        <path d="M29.34 -0.63 C34.87 -0.81, 42.25 2.19, 46.41 6.26 C50.57 10.32, 53.46 17.82, 54.29 23.76 C55.13 29.7, 54.57 37.12, 51.4 41.91 C48.23 46.71, 40.99 50.8, 35.26 52.53 C29.54 54.25, 22.49 54.49, 17.07 52.26 C11.65 50.03, 5.54 44.27, 2.73 39.14 C-0.09 34.02, -1.16 27.14, 0.17 21.49 C1.5 15.83, 4.94 8.52, 10.71 5.19 C16.48 1.87, 30.21 2.07, 34.81 1.53 C39.4 0.98, 38.56 1.71, 38.25 1.92 M21.13 1.54 C26.69 -0.06, 35.45 0.84, 40.66 3.5 C45.87 6.15, 50.28 12.29, 52.39 17.47 C54.5 22.65, 55.18 29.23, 53.32 34.57 C51.46 39.91, 46.14 46.15, 41.24 49.5 C36.34 52.86, 29.76 55.59, 23.92 54.7 C18.08 53.81, 10.01 48.56, 6.2 44.14 C2.39 39.73, 0.98 33.68, 1.04 28.23 C1.1 22.78, 2.95 16.21, 6.55 11.47 C10.15 6.73, 19.84 1.52, 22.63 -0.19 C25.42 -1.91, 23.28 0.36, 23.29 1.16" stroke="#000000" stroke-width="1" fill="none"></path>
    </g>
    <g transform="translate(346.6922967328652 21.451766967773438) rotate(0 15.5 12.5)">
        <text x="0" y="18" font-family="Virgil, Segoe UI Emoji" font-size="20px" fill="#000000" text-anchor="start" style="white-space: pre;" direction="ltr">init</text>
    </g>
    <g stroke-linecap="round" transform="translate(284.26535581489645 112.74681091308594) rotate(0 27.642333984374996 27.069686889648438)">
        <path d="M36.72 1.63 C42.15 3.08, 48.11 8.5, 51.23 13.43 C54.36 18.35, 56.47 25.54, 55.46 31.17 C54.45 36.8, 49.83 43.23, 45.19 47.22 C40.55 51.21, 33.59 54.91, 27.61 55.12 C21.63 55.34, 14 52.54, 9.33 48.5 C4.65 44.46, 0.39 36.68, -0.43 30.87 C-1.25 25.05, 1.38 18.6, 4.41 13.63 C7.44 8.65, 11.77 2.72, 17.75 1 C23.72 -0.73, 35.88 2.4, 40.28 3.27 C44.69 4.13, 44.18 5.62, 44.19 6.18 M19.05 1.75 C24.49 -0.21, 33.04 0.55, 38.67 2.58 C44.3 4.62, 50.01 8.9, 52.86 13.96 C55.71 19.03, 57.16 27.36, 55.79 32.95 C54.41 38.54, 49.47 43.72, 44.61 47.49 C39.76 51.26, 32.39 55.77, 26.67 55.58 C20.96 55.39, 14.5 50.38, 10.32 46.34 C6.15 42.3, 2.41 37.11, 1.62 31.33 C0.83 25.55, 2.7 16.63, 5.6 11.67 C8.49 6.71, 16.51 3.23, 18.98 1.57 C21.46 -0.09, 20.09 1.52, 20.47 1.71" stroke="#000000" stroke-width="1" fill="none"></path>
    </g>
    <g transform="translate(348.75729917427145 124.63591003417969) rotate(0 17 12.5)">
        <text x="0" y="18" font-family="Virgil, Segoe UI Emoji" font-size="20px" fill="#000000" text-anchor="start" style="white-space: pre;" direction="ltr">idle</text>
    </g>
    <g stroke-linecap="round">
        <g transform="translate(313.2039128468376 66.881620854452) rotate(0 -0.68543823713091 21.81121421445583)">
            <path d="M-0.01 1.16 C0.06 8.26, 0.21 34.79, -0.01 41.68 M-1.48 0.73 C-1.49 8.06, -1.19 35.7, -0.76 42.89" stroke="#000000" stroke-width="1" fill="none"></path>
        </g>
        <g transform="translate(313.2039128468376 66.881620854452) rotate(0 -0.68543823713091 21.81121421445583)">
            <path d="M-6.68 23.88 C-7.72 26.87, -4.31 33.77, 0.79 41.75 M-7.89 23.01 C-7.39 27.51, -3.86 33.81, -0.4 43.25" stroke="#000000" stroke-width="1" fill="none"></path>
        </g>
        <g transform="translate(313.2039128468376 66.881620854452) rotate(0 -0.68543823713091 21.81121421445583)">
            <path d="M7.78 23.42 C2.93 26.53, 2.53 33.55, 0.79 41.75 M6.56 22.55 C3.23 27.29, 2.91 33.7, -0.4 43.25" stroke="#000000" stroke-width="1" fill="none"></path>
        </g>
    </g>
    <g stroke-linecap="round" transform="translate(287.08770783523386 235.34128435391403) rotate(0 27.642333984374996 27.06968688964844)">
        <path d="M34.33 0.2 C39.92 1.2, 47.54 6.72, 51.04 11.61 C54.55 16.5, 56.01 23.75, 55.35 29.55 C54.69 35.35, 51.38 42.36, 47.08 46.42 C42.77 50.48, 35.35 53.52, 29.52 53.92 C23.68 54.31, 16.67 52.17, 12.05 48.77 C7.44 45.38, 3.48 39.06, 1.83 33.55 C0.18 28.03, -0.13 20.73, 2.16 15.69 C4.45 10.65, 9.24 5.36, 15.57 3.29 C21.9 1.23, 35.3 2.81, 40.15 3.3 C45 3.79, 44.81 5.9, 44.65 6.23 M34.73 0.31 C40.09 1.8, 47.27 8.42, 50.68 13.52 C54.09 18.63, 55.95 25.59, 55.17 30.94 C54.4 36.29, 50.22 41.69, 46.02 45.64 C41.82 49.59, 35.9 54.24, 29.97 54.65 C24.05 55.07, 15.15 51.57, 10.48 48.14 C5.81 44.71, 3.12 39.83, 1.96 34.08 C0.8 28.34, 0.87 19.19, 3.53 13.66 C6.19 8.14, 12.57 2.97, 17.91 0.94 C23.25 -1.09, 32.76 1.48, 35.59 1.46 C38.42 1.45, 35.06 0.38, 34.9 0.86" stroke="#000000" stroke-width="1" fill="none"></path>
    </g>
    <g transform="translate(351.68189449461266 248.86873474828906) rotate(0 77 12.5)">
        <text x="0" y="18" font-family="Virgil, Segoe UI Emoji" font-size="20px" fill="#000000" text-anchor="start" style="white-space: pre;" direction="ltr">handleMovement</text>
    </g>
    <g stroke-linecap="round">
        <g transform="translate(314.31347754937605 173.8136756066571) rotate(0 -0.22439331455076683 28.44828151477148)">
            <path d="M0.55 1 C0.27 10.58, -1.33 47.39, -1.3 56.42 M-0.61 0.48 C-0.58 9.84, 0.66 45.55, 0.85 54.89" stroke="#000000" stroke-width="1" fill="none"></path>
        </g>
        <g transform="translate(314.31347754937605 173.8136756066571) rotate(0 -0.22439331455076683 28.44828151477148)">
            <path d="M-7.67 27.38 C-4.27 39.42, -2.87 45.57, 1.97 55.09 M-8.47 29.45 C-7.97 34.34, -5.7 40.27, 1.25 53.96" stroke="#000000" stroke-width="1" fill="none"></path>
        </g>
        <g transform="translate(314.31347754937605 173.8136756066571) rotate(0 -0.22439331455076683 28.44828151477148)">
            <path d="M11.24 26.85 C8.28 39.16, 3.31 45.49, 1.97 55.09 M10.44 28.92 C7.16 34.07, 5.65 40.12, 1.25 53.96" stroke="#000000" stroke-width="1" fill="none"></path>
        </g>
    </g>
    <g transform="translate(325.5403126655453 174.90373034944406) rotate(0 67 12.5)">
        <text x="0" y="18" font-family="Virgil, Segoe UI Emoji" font-size="20px" fill="#c92a2a" text-anchor="start" style="white-space: pre;" direction="ltr">move(position)</text>
    </g>
    <g stroke-linecap="round" transform="translate(314.6602542468071 378.4004060363196) rotate(0 27.642333984374996 27.069686889648438)">
        <path d="M38.62 1.78 C43.93 3.5, 48.85 9.89, 51.56 15.12 C54.26 20.35, 56.13 27.62, 54.85 33.16 C53.58 38.7, 48.5 44.74, 43.9 48.35 C39.3 51.97, 32.93 55.07, 27.26 54.84 C21.59 54.62, 14.5 51.02, 9.87 46.98 C5.24 42.94, 0.42 36.32, -0.51 30.6 C-1.45 24.87, 0.96 17.47, 4.26 12.62 C7.55 7.77, 12.43 2.59, 19.24 1.51 C26.05 0.42, 40.17 4.42, 45.12 6.09 C50.07 7.77, 49.44 11.12, 48.94 11.56 M28.64 -0.57 C34.4 -1.09, 42.05 2.29, 46.59 6.1 C51.13 9.91, 55.06 16.48, 55.88 22.28 C56.71 28.08, 54.44 35.65, 51.52 40.89 C48.61 46.13, 43.86 51.95, 38.39 53.74 C32.91 55.54, 24.68 54.01, 18.67 51.68 C12.67 49.34, 5.44 44.8, 2.36 39.74 C-0.71 34.68, -1.1 27.09, 0.22 21.32 C1.53 15.55, 5.93 8.63, 10.25 5.13 C14.58 1.64, 23.5 0.89, 26.17 0.35 C28.84 -0.19, 26.11 1.37, 26.28 1.89" stroke="#000000" stroke-width="1" fill="none"></path>
    </g>
    <g stroke-linecap="round" transform="translate(153.2141586381232 340.80378768935316) rotate(0 27.642333984375 27.069686889648445)">
        <path d="M27.52 -0.41 C33.11 -0.84, 40.08 2.77, 44.53 6.4 C48.98 10.02, 53.15 15.73, 54.21 21.35 C55.27 26.97, 53.8 34.91, 50.87 40.13 C47.94 45.34, 41.91 50.47, 36.62 52.64 C31.33 54.81, 24.6 55.26, 19.13 53.14 C13.67 51.02, 6.99 44.88, 3.84 39.93 C0.68 34.99, -0.81 28.98, 0.22 23.48 C1.25 17.98, 5.32 10.81, 10.03 6.95 C14.73 3.09, 24.92 1.43, 28.45 0.31 C31.97 -0.81, 31.24 -0.27, 31.16 0.23 M38.39 2.48 C43.48 4.57, 48.71 10.19, 51.42 15.46 C54.12 20.72, 55.93 28.4, 54.61 34.06 C53.29 39.71, 48.23 45.91, 43.49 49.38 C38.75 52.86, 32.15 55.24, 26.19 54.93 C20.23 54.62, 11.9 51.6, 7.72 47.51 C3.55 43.41, 1.69 36.27, 1.12 30.37 C0.55 24.46, 1.24 16.81, 4.3 12.08 C7.37 7.34, 13.89 3.34, 19.52 1.95 C25.15 0.56, 34.78 3.61, 38.09 3.74 C41.4 3.87, 39.2 2.68, 39.41 2.73" stroke="#000000" stroke-width="1" fill="none"></path>
    </g>
    <g transform="translate(10 396.58823625857093) rotate(0 134.5 12.5)">
        <text x="0" y="18" font-family="Virgil, Segoe UI Emoji" font-size="20px" fill="#000000" text-anchor="start" style="white-space: pre;" direction="ltr">handleInterruptedMovement</text>
    </g>
    <g stroke-linecap="round" transform="translate(538.131228408892 365.08608638651543) rotate(0 27.642333984375 27.069686889648438)">
        <path d="M30.6 0.91 C36.35 1.11, 43.9 3.97, 48.16 8.13 C52.42 12.3, 55.74 20.19, 56.17 25.91 C56.6 31.64, 54.3 38.04, 50.73 42.48 C47.15 46.93, 40.5 51.26, 34.74 52.58 C28.99 53.91, 21.47 52.85, 16.2 50.45 C10.93 48.04, 5.68 43.17, 3.12 38.14 C0.56 33.11, -0.57 25.77, 0.83 20.25 C2.24 14.73, 6.08 8.44, 11.55 5.03 C17.01 1.62, 29.75 0.41, 33.61 -0.22 C37.48 -0.85, 34.97 0.73, 34.72 1.27 M25.57 0.42 C31.41 -0.33, 38.98 2.9, 43.91 6.1 C48.83 9.3, 53.62 14.38, 55.12 19.62 C56.62 24.86, 55.67 32.31, 52.89 37.55 C50.11 42.8, 43.87 48.65, 38.44 51.09 C33 53.52, 26.02 53.51, 20.29 52.15 C14.56 50.79, 7.37 47.23, 4.06 42.93 C0.75 38.64, -0.3 32.28, 0.43 26.37 C1.15 20.46, 4.09 11.78, 8.41 7.46 C12.73 3.15, 23.57 1.59, 26.35 0.47 C29.13 -0.66, 25.14 0.21, 25.09 0.71" stroke="#000000" stroke-width="1" fill="none"></path>
    </g>
    <g stroke-linecap="round">
        <g transform="translate(293.25792246323385 279.403757338051) rotate(0 -43.16205690886994 35.242077433011296)">
            <path d="M0.23 0.91 C-14.29 12.32, -72.12 57.59, -86.55 68.87 M-1.12 0.34 C-15.31 11.88, -69.9 58.62, -84.28 70.14" stroke="#000000" stroke-width="1" fill="none"></path>
        </g>
        <g transform="translate(293.25792246323385 279.403757338051) rotate(0 -43.16205690886994 35.242077433011296)">
            <path d="M-67.65 42.82 C-75.17 52.2, -80.89 62.85, -85.63 68.78 M-69.78 44.74 C-75.16 54.9, -81.47 64.47, -84.25 70.87" stroke="#000000" stroke-width="1" fill="none"></path>
        </g>
        <g transform="translate(293.25792246323385 279.403757338051) rotate(0 -43.16205690886994 35.242077433011296)">
            <path d="M-54.53 58.6 C-66.65 62.54, -76.92 67.71, -85.63 68.78 M-56.66 60.52 C-67.05 64.49, -78.51 67.86, -84.25 70.87" stroke="#000000" stroke-width="1" fill="none"></path>
        </g>
    </g>
    <g stroke-linecap="round">
        <g transform="translate(322.0295096238715 292.3655745708189) rotate(0 8.994496574318404 41.01195219512654)">
            <path d="M1.12 -0.54 C4.27 12.86, 15.05 67.19, 17.74 80.94 M0.25 1.79 C3.32 15.36, 13.4 69.49, 16.66 82.56" stroke="#000000" stroke-width="1" fill="none"></path>
        </g>
        <g transform="translate(322.0295096238715 292.3655745708189) rotate(0 8.994496574318404 41.01195219512654)">
            <path d="M-0.15 56.72 C4.4 61, 9.34 66.82, 18.3 81.05 M1.2 57.91 C6.21 66.39, 11.37 75.87, 16.38 82.71" stroke="#000000" stroke-width="1" fill="none"></path>
        </g>
        <g transform="translate(322.0295096238715 292.3655745708189) rotate(0 8.994496574318404 41.01195219512654)">
            <path d="M19.92 52.44 C20.38 57.79, 21.21 64.49, 18.3 81.05 M21.27 53.64 C19.26 63.63, 17.38 74.6, 16.38 82.71" stroke="#000000" stroke-width="1" fill="none"></path>
        </g>
    </g>
    <g stroke-linecap="round">
        <g transform="translate(358.7295425905799 285.4112447372592) rotate(0 92.27950682437525 42.951253016825525)">
            <path d="M-0.23 -0.35 C30.39 13.91, 153.02 71.91, 184.07 86.48 M-1.81 -1.58 C29.15 12.72, 155.08 72.53, 186.36 87.48" stroke="#000000" stroke-width="1" fill="none"></path>
        </g>
        <g transform="translate(358.7295425905799 285.4112447372592) rotate(0 92.27950682437525 42.951253016825525)">
            <path d="M155.91 83.3 C164.77 87.62, 175.71 88.2, 186.34 85.74 M156.28 85.48 C163.58 85.09, 171.22 86.63, 187.3 88.22" stroke="#000000" stroke-width="1" fill="none"></path>
        </g>
        <g transform="translate(358.7295425905799 285.4112447372592) rotate(0 92.27950682437525 42.951253016825525)">
            <path d="M164.74 64.77 C170.8 75.25, 178.79 82, 186.34 85.74 M165.1 66.95 C170.35 70.9, 175.94 76.75, 187.3 88.22" stroke="#000000" stroke-width="1" fill="none"></path>
        </g>
    </g>
    <g transform="translate(176.40627687520134 303.6083848120561) rotate(0 46.5 12.5)">
        <text x="0" y="18" font-family="Virgil, Segoe UI Emoji" font-size="20px" fill="#2b8a3e" text-anchor="start" style="white-space: pre;" direction="ltr">stopAck()</text>
    </g>
    <g stroke-linecap="round">
        <g transform="translate(148.93280955902145 370.58249459393744) rotate(0 34.4164510000619 -53.1172854688312)">
            <path d="M-0.57 0.72 C-9.26 -1.88, -41.08 -5.26, -51.08 -14.89 C-61.09 -24.51, -63.23 -42.32, -60.59 -57.03 C-57.95 -71.75, -66.81 -95.34, -35.24 -103.18 C-3.67 -111.03, 101.32 -104.21, 128.81 -104.11 M1.34 0.05 C-7.51 -2.5, -41.05 -4.07, -51.42 -13.91 C-61.79 -23.74, -63.56 -44.25, -60.88 -58.97 C-58.2 -73.68, -67.3 -94.71, -35.34 -102.21 C-3.39 -109.72, 103.64 -103.86, 130.83 -104" stroke="#000000" stroke-width="1" fill="none"></path>
        </g>
        <g transform="translate(148.93280955902145 370.58249459393744) rotate(0 34.4164510000619 -53.1172854688312)">
            <path d="M103.6 -92.46 C111.66 -96.49, 125.81 -102.86, 130.4 -104.55 M102.35 -93.59 C109.31 -96.76, 116.72 -99.26, 130 -104.92" stroke="#000000" stroke-width="1" fill="none"></path>
        </g>
        <g transform="translate(148.93280955902145 370.58249459393744) rotate(0 34.4164510000619 -53.1172854688312)">
            <path d="M104.08 -112.97 C112.07 -109.02, 126.04 -107.38, 130.4 -104.55 M102.83 -114.1 C109.76 -112.05, 117.05 -109.32, 130 -104.92" stroke="#000000" stroke-width="1" fill="none"></path>
        </g>
    </g>
    <g transform="translate(270.92082605251807 441.71322357556085) rotate(0 78.5 12.5)">
        <text x="0" y="18" font-family="Virgil, Segoe UI Emoji" font-size="20px" fill="#000000" text-anchor="start" style="white-space: pre;" direction="ltr">handlePathDone</text>
    </g>
    <g transform="translate(508.9616782597326 421.27937740512243) rotate(0 72 12.5)">
        <text x="0" y="18" font-family="Virgil, Segoe UI Emoji" font-size="20px" fill="#000000" text-anchor="start" style="white-space: pre;" direction="ltr">handlePathFail</text>
    </g>
    <g transform="translate(284.8330770684906 326.94345806119077) rotate(0 67 12.5)">
        <text x="0" y="18" font-family="Virgil, Segoe UI Emoji" font-size="20px" fill="#2b8a3e" text-anchor="start" style="white-space: pre;" direction="ltr">doPathDone()</text>
    </g>
    <g transform="translate(468.77638163641143 312.360532459309) rotate(0 61 12.5)">
        <text x="0" y="18" font-family="Virgil, Segoe UI Emoji" font-size="20px" fill="#2b8a3e" text-anchor="start" style="white-space: pre;" direction="ltr">doPathFail()</text>
    </g>
    <g stroke-linecap="round">
        <g transform="translate(346.85816852269096 463.465013162794) rotate(0 184.81058764194853 -158.6379784900157)">
            <path d="M-1.13 -1.18 C5.82 4.46, -15.06 33.73, 41.74 34.54 C98.54 35.35, 292.11 64.43, 339.66 3.71 C387.21 -57.01, 378.04 -271.8, 327.03 -329.78 C276.03 -387.75, 82.3 -341.58, 33.62 -344.16 M0.47 0.82 C7.28 6.06, -15.45 32.13, 40.94 32.85 C97.32 33.56, 290.98 65.32, 338.77 5.1 C386.56 -55.13, 378.24 -269.85, 327.68 -328.51 C277.13 -387.18, 84.53 -343.92, 35.42 -346.88" stroke="#000000" stroke-width="1" fill="none"></path>
        </g>
        <g transform="translate(346.85816852269096 463.465013162794) rotate(0 184.81058764194853 -158.6379784900157)">
            <path d="M60.77 -358.81 C55.9 -356.18, 46.48 -350.73, 35.93 -348.1 M62.16 -359.08 C52.79 -354.21, 42.14 -350.33, 35.34 -346.41" stroke="#000000" stroke-width="1" fill="none"></path>
        </g>
        <g transform="translate(346.85816852269096 463.465013162794) rotate(0 184.81058764194853 -158.6379784900157)">
            <path d="M62.35 -338.35 C56.88 -341.94, 46.98 -342.7, 35.93 -348.1 M63.74 -338.62 C53.66 -341.66, 42.4 -345.69, 35.34 -346.41" stroke="#000000" stroke-width="1" fill="none"></path>
        </g>
    </g>
    <g stroke-linecap="round">
        <g transform="translate(596.137410813707 393.64410179524646) rotate(0 -60.82128187364279 -129.4667318242643)">
            <path d="M0.29 1.09 C12.43 -3.97, 64.66 10.19, 72.11 -29.9 C79.57 -70, 90.41 -202.17, 45.03 -239.47 C-0.35 -276.77, -159.34 -251.46, -200.17 -253.68 M-1.02 0.62 C11.08 -4.31, 63.79 11.26, 71.4 -28.53 C79.01 -68.32, 89.98 -200.79, 44.65 -238.14 C-0.67 -275.48, -160.05 -250.32, -200.53 -252.62" stroke="#000000" stroke-width="1" fill="none"></path>
        </g>
        <g transform="translate(596.137410813707 393.64410179524646) rotate(0 -60.82128187364279 -129.4667318242643)">
            <path d="M-171.03 -263.45 C-179.87 -260.14, -185.83 -260.58, -200.67 -254.14 M-172 -263.38 C-184.03 -259.04, -192.83 -255, -200.79 -253.4" stroke="#000000" stroke-width="1" fill="none"></path>
        </g>
        <g transform="translate(596.137410813707 393.64410179524646) rotate(0 -60.82128187364279 -129.4667318242643)">
            <path d="M-170.07 -242.95 C-179.21 -244.48, -185.4 -249.76, -200.67 -254.14 M-171.04 -242.88 C-183.39 -246.11, -192.54 -249.64, -200.79 -253.4" stroke="#000000" stroke-width="1" fill="none"></path>
        </g>
    </g>
    <g stroke-linecap="round">
        <g transform="translate(284.47127147971355 256.5223594143627) rotate(0 -28.017002386651697 -31.24841342032424)">
            <path d="M-0.38 -1.09 C-10.57 -3.5, -57.35 -4.47, -60.62 -14.54 C-63.89 -24.6, -30.88 -62.02, -19.98 -61.48 C-9.07 -60.95, 0.7 -19.36, 4.81 -11.35 M1.63 0.95 C-8.22 -1.33, -54.48 -2.79, -58.23 -13.52 C-61.98 -24.25, -31.37 -63.48, -20.89 -63.44 C-10.4 -63.41, 0.12 -21.64, 4.69 -13.33" stroke="#000000" stroke-width="1" fill="none"></path>
        </g>
        <g transform="translate(284.47127147971355 256.5223594143627) rotate(0 -28.017002386651697 -31.24841342032424)">
            <path d="M-15.42 -35.4 C-8.95 -27.51, 0.22 -20.97, 6.54 -14.67 M-13.97 -33.52 C-9.42 -30.01, -5.52 -24.1, 4.65 -12.84" stroke="#000000" stroke-width="1" fill="none"></path>
        </g>
        <g transform="translate(284.47127147971355 256.5223594143627) rotate(0 -28.017002386651697 -31.24841342032424)">
            <path d="M2.39 -42.23 C2.7 -32.04, 5.73 -23.14, 6.54 -14.67 M3.85 -40.35 C4.52 -35.45, 4.52 -28.04, 4.65 -12.84" stroke="#000000" stroke-width="1" fill="none"></path>
        </g>
    </g>
    <g transform="translate(103.66855295645348 195.27781493657955) rotate(0 67 12.5)">
        <text x="0" y="18" font-family="Virgil, Segoe UI Emoji" font-size="20px" fill="#c92a2a" text-anchor="start" style="white-space: pre;" direction="ltr">move(position)</text>
    </g>
    <g stroke-linecap="round" transform="translate(39.72021924031918 33.75459142244313) rotate(0 18.262456876341986 7.78969646534722)">
        <path d="M-1.23 -0.98 L37.42 -1.09 L38.1 15.43 L-1.83 14.32" stroke="none" stroke-width="0" fill="#fa5252"></path>
        <path d="M-0.89 0.65 C9.64 0.85, 21.77 1.27, 35.35 -1.65 M-0.02 0.53 C8.64 0.61, 18.26 -0.65, 36.45 -0.08 M37.79 0.13 C35.45 3.12, 35.82 7.79, 36.36 16.38 M36.79 -0.58 C36.28 5.43, 35.84 10.63, 35.79 15.11 M35.95 16.97 C23.46 16.33, 10.76 15.32, 0.23 13.78 M36.45 16.44 C23.51 15.59, 10.46 15.23, -0.17 15.72 M1.48 17.06 C-0.56 10.99, -1.41 5.12, 0.87 -1.25 M-0.61 14.88 C0.68 9.75, -0.46 4.75, -0.04 -0.25" stroke="#c92a2a" stroke-width="4" fill="none"></path>
    </g>
    <g transform="translate(94.15496986474085 27.51734856364635) rotate(0 44 12.5)">
        <text x="0" y="18" font-family="Virgil, Segoe UI Emoji" font-size="20px" fill="#c92a2a" text-anchor="start" style="white-space: pre;" direction="ltr">requests</text>
    </g>
    <g stroke-linecap="round" transform="translate(41.65944308877465 72.37558050834338) rotate(0 18.262456876341986 7.78969646534722)">
        <path d="M-1.93 -1.88 L34.74 -0.11 L37.6 14.87 L-0.28 13.7" stroke="none" stroke-width="0" fill="#40c057"></path>
        <path d="M1.67 1.21 C6.5 1.6, 13.39 -1.25, 36.32 1.33 M-0.7 0.95 C13.21 -0.09, 24.83 -0.19, 37.08 0.13 M37.47 0.4 C36.42 5.19, 37.96 9.01, 37.1 16.41 M36.79 0.08 C36.57 5.78, 36.01 9.87, 37.07 15.64 M37.2 17.42 C26.92 15.58, 16.89 16.3, -0.09 16.17 M36.32 15.79 C24.37 14.41, 11.43 16.09, 0.78 15.26 M0.2 14.06 C0.32 8.62, 0.12 3.67, -1.28 -1.18 M-0.45 15.33 C0.61 10.65, -0.37 5.1, -0.65 -0.19" stroke="#2b8a3e" stroke-width="4" fill="none"></path>
    </g>
    <g transform="translate(96.11957503999992 66.1383376495466) rotate(0 23 12.5)">
        <text x="0" y="18" font-family="Virgil, Segoe UI Emoji" font-size="20px" fill="#2b8a3e" text-anchor="start" style="white-space: pre;" direction="ltr">reply</text>
    </g>
</svg>