<svg version="1.1" xmlns="http://www.w3.org/2000/svg" viewBox="0 0 847.3128748867157 607.8537573117685" width="847.3128748867157" height="607.8537573117685">
    <!-- svg-source:excalidraw -->

    <defs>
        <style>
        @font-face {
          font-family: "Virgil";
          src: url("https://unpkg.com/@zsviczian/excalidraw@0.12.0-obsidian-10/dist/excalidraw-assets/Virgil.woff2");
        }
        @font-face {
          font-family: "Cascadia";
          src: url("https://unpkg.com/@zsviczian/excalidraw@0.12.0-obsidian-10/dist/excalidraw-assets/Cascadia.woff2");
        }
      </style>
    </defs>
    <rect x="0" y="0" width="847.3128748867157" height="607.8537573117685" fill="#ffffff"></rect>
    <g stroke-linecap="round" transform="translate(25.362830009065306 162.4127978830748) rotate(0 27.642333984374996 27.069686889648438)">
        <path d="M30.03 0.31 C35.66 0.71, 43.04 3.95, 47.4 8.2 C51.76 12.46, 55.72 19.98, 56.18 25.87 C56.63 31.75, 53.89 38.98, 50.11 43.51 C46.33 48.05, 39.16 51.74, 33.49 53.06 C27.81 54.38, 21.19 54.08, 16.05 51.44 C10.92 48.79, 5.13 42.52, 2.68 37.2 C0.22 31.88, -0.45 25.11, 1.32 19.53 C3.08 13.95, 7.65 6.76, 13.26 3.7 C18.87 0.64, 30.8 1.22, 34.97 1.15 C39.13 1.09, 38.45 2.85, 38.26 3.31 M13.01 3.26 C17.89 0.34, 26.26 -0.32, 32.43 0.74 C38.59 1.79, 45.98 5.3, 50 9.58 C54.03 13.87, 56.86 20.46, 56.55 26.45 C56.24 32.44, 52.39 41.01, 48.14 45.51 C43.9 50.01, 36.87 52.73, 31.08 53.46 C25.3 54.2, 18.28 53.09, 13.44 49.94 C8.61 46.78, 4.21 40.08, 2.06 34.55 C-0.08 29.02, -1.32 21.88, 0.59 16.76 C2.5 11.63, 11.12 5.84, 13.52 3.79 C15.92 1.75, 14.44 4.15, 14.98 4.47" stroke="#000000" stroke-width="1" fill="none"></path>
    </g>
    <g transform="translate(34.83251953125 126.98803897194199) rotate(0 15.5 12.5)">
        <text x="0" y="18" font-family="Virgil, Segoe UI Emoji" font-size="20px" fill="#000000" text-anchor="start" style="white-space: pre;" direction="ltr">init</text>
    </g>
    <g stroke-linecap="round">
        <g transform="translate(53.08055989877752 224.95694090607998) rotate(0 0.4468644071988326 35.58327020168332)">
            <path d="M0.27 -0.25 C0.36 11.55, -0.3 59.44, -0.14 71.48 M-1.05 -1.43 C-0.55 10.46, 1.68 60.17, 1.95 72.6" stroke="#000000" stroke-width="1" fill="none"></path>
        </g>
        <g transform="translate(53.08055989877752 224.95694090607998) rotate(0 0.4468644071988326 35.58327020168332)">
            <path d="M-9.71 42.81 C-7.75 51.78, -4.19 57.87, 3.84 73.65 M-9.6 45.46 C-5.48 54.11, -2.72 62.86, 2.02 73.54" stroke="#000000" stroke-width="1" fill="none"></path>
        </g>
        <g transform="translate(53.08055989877752 224.95694090607998) rotate(0 0.4468644071988326 35.58327020168332)">
            <path d="M10.8 42.1 C7.8 51.28, 6.4 57.55, 3.84 73.65 M10.91 44.74 C8.47 53.48, 4.67 62.46, 2.02 73.54" stroke="#000000" stroke-width="1" fill="none"></path>
        </g>
    </g>
    <g stroke-linecap="round" transform="translate(31.484412040315306 309.8412826774534) rotate(0 27.642333984374996 27.069686889648438)">
        <path d="M31.25 -0.3 C36.59 0.16, 43.77 5.2, 47.77 9.68 C51.76 14.17, 54.92 20.93, 55.21 26.63 C55.5 32.33, 53.21 39.33, 49.51 43.87 C45.82 48.41, 38.85 52.65, 33.05 53.87 C27.25 55.09, 19.75 54.05, 14.71 51.19 C9.67 48.32, 4.86 42.21, 2.79 36.65 C0.72 31.1, 0.66 23.27, 2.28 17.86 C3.91 12.45, 7.12 7.12, 12.55 4.19 C17.97 1.26, 30.92 0.74, 34.81 0.3 C38.7 -0.14, 36.07 0.88, 35.87 1.56 M13.94 1.69 C18.88 -1.52, 28.22 -2.28, 33.97 -0.69 C39.73 0.9, 44.96 6.52, 48.47 11.23 C51.99 15.94, 55.39 21.85, 55.05 27.59 C54.72 33.32, 50.66 41.11, 46.46 45.63 C42.25 50.15, 35.62 54.04, 29.84 54.7 C24.05 55.35, 16.63 52.95, 11.77 49.55 C6.91 46.15, 2.39 39.88, 0.67 34.29 C-1.05 28.7, -1.13 21.12, 1.44 16.02 C4.02 10.92, 13.82 5.66, 16.11 3.69 C18.4 1.72, 15.37 3.82, 15.2 4.22" stroke="#000000" stroke-width="1" fill="none"></path>
    </g>
    <g transform="translate(10 367.30327303389873) rotate(0 54.5 12.5)">
        <text x="0" y="18" font-family="Virgil, Segoe UI Emoji" font-size="20px" fill="#000000" text-anchor="start" style="white-space: pre;" direction="ltr">doThePath</text>
    </g>
    <g stroke-linecap="round">
        <g transform="translate(90.08901935105152 337.6342585446923) rotate(0 23.043803376766714 0.003283960367539862)">
            <path d="M0 0.65 C8.08 0.56, 39.6 -0.65, 47.55 -0.74 M-1.46 -0.05 C6.63 0.05, 38.93 0.99, 47.09 0.68" stroke="#000000" stroke-width="1" fill="none"></path>
        </g>
        <g transform="translate(90.08901935105152 337.6342585446923) rotate(0 23.043803376766714 0.003283960367539862)">
            <path d="M26.27 10.2 C29.66 8.64, 35.94 6.43, 45.38 -0.26 M24.54 9.54 C29.24 6.45, 34.49 5.16, 47.95 1.09" stroke="#000000" stroke-width="1" fill="none"></path>
        </g>
        <g transform="translate(90.08901935105152 337.6342585446923) rotate(0 23.043803376766714 0.003283960367539862)">
            <path d="M26.27 -5.75 C29.65 -3.78, 35.93 -2.47, 45.38 -0.26 M24.54 -6.41 C29.1 -6.21, 34.36 -4.21, 47.95 1.09" stroke="#000000" stroke-width="1" fill="none"></path>
        </g>
    </g>
    <g stroke-linecap="round" transform="translate(147.0201786418778 309.6875781565123) rotate(0 27.642333984375 27.069686889648438)">
        <path d="M28.72 -0.11 C34.14 -0.07, 41.23 3.68, 45.76 7.63 C50.29 11.57, 55.12 17.74, 55.89 23.56 C56.65 29.39, 53.76 37.62, 50.37 42.58 C46.98 47.54, 40.93 51.83, 35.54 53.32 C30.14 54.81, 23.51 53.92, 17.98 51.53 C12.45 49.14, 5.12 44.13, 2.34 38.96 C-0.44 33.8, -0.25 26.03, 1.27 20.57 C2.8 15.1, 6.02 9.51, 11.5 6.16 C16.98 2.81, 29.74 1.09, 34.13 0.45 C38.51 -0.19, 38.16 1.76, 37.82 2.32 M34.3 0.74 C40.03 2.06, 48.43 8.42, 52.06 13.35 C55.69 18.28, 57.14 24.67, 56.09 30.33 C55.03 36, 49.99 43.44, 45.74 47.34 C41.5 51.24, 36.36 53.56, 30.62 53.71 C24.88 53.86, 16.13 51.62, 11.32 48.25 C6.51 44.89, 3.35 39.09, 1.78 33.51 C0.21 27.94, -0.36 20.15, 1.9 14.83 C4.17 9.5, 9.74 3.99, 15.36 1.56 C20.97 -0.86, 32.24 0.01, 35.61 0.26 C38.99 0.51, 35.7 2.41, 35.61 3.07" stroke="#000000" stroke-width="1" fill="none"></path>
    </g>
    <g transform="translate(116.8505859375 279.0632648020201) rotate(0 46.5 12.5)">
        <text x="0" y="18" font-family="Virgil, Segoe UI Emoji" font-size="20px" fill="#000000" text-anchor="start" style="white-space: pre;" direction="ltr">nextMove</text>
    </g>
    <g stroke-linecap="round">
        <g transform="translate(203.90104501124117 310.2028868688128) rotate(0 42.425993256905734 -31.619349866700702)">
            <path d="M0.11 0.85 C14.52 -9.94, 71.76 -53.18, 86.15 -64.09 M-1.29 0.25 C12.95 -10.41, 70.5 -52.01, 84.98 -62.66" stroke="#000000" stroke-width="1" fill="none"></path>
        </g>
        <g transform="translate(203.90104501124117 310.2028868688128) rotate(0 42.425993256905734 -31.619349866700702)">
            <path d="M69.65 -38.46 C72.32 -44.84, 76.05 -50.38, 86.64 -62.69 M68.66 -36.8 C71.55 -44.53, 75.6 -49.22, 84.38 -62.01" stroke="#000000" stroke-width="1" fill="none"></path>
        </g>
        <g transform="translate(203.90104501124117 310.2028868688128) rotate(0 42.425993256905734 -31.619349866700702)">
            <path d="M57.56 -55.05 C63.62 -56.91, 70.65 -57.93, 86.64 -62.69 M56.57 -53.39 C62.57 -57.03, 69.55 -57.68, 84.38 -62.01" stroke="#000000" stroke-width="1" fill="none"></path>
        </g>
    </g>
    <g stroke-linecap="round" transform="translate(299.5165165325028 216.59196658424668) rotate(0 27.642333984375 27.069686889648438)">
        <path d="M32.14 0.29 C37.68 0.99, 44.33 5.06, 48.23 9.55 C52.12 14.04, 55.51 21.48, 55.52 27.23 C55.54 32.99, 52.01 39.79, 48.33 44.1 C44.66 48.4, 39.14 52.06, 33.46 53.06 C27.78 54.07, 19.59 52.89, 14.25 50.13 C8.9 47.38, 3.38 42.04, 1.39 36.55 C-0.61 31.06, 0.39 22.69, 2.28 17.2 C4.17 11.71, 7.51 6.28, 12.72 3.63 C17.92 0.99, 29.75 1.7, 33.51 1.33 C37.26 0.97, 35.44 1.28, 35.25 1.43 M36.04 0.43 C41.68 1.33, 47.59 7.14, 50.78 11.9 C53.97 16.65, 55.57 23.3, 55.18 28.97 C54.79 34.63, 52.57 41.86, 48.44 45.89 C44.31 49.92, 36.48 52.59, 30.42 53.15 C24.36 53.7, 16.92 52.42, 12.07 49.22 C7.21 46.02, 2.95 39.56, 1.29 33.95 C-0.37 28.34, -0.5 20.89, 2.1 15.56 C4.7 10.23, 11.41 4.25, 16.87 1.96 C22.33 -0.33, 31.65 2.12, 34.86 1.84 C38.07 1.55, 36.12 0.06, 36.11 0.27" stroke="#000000" stroke-width="1" fill="none"></path>
    </g>
    <g transform="translate(270.1571044921875 194.66122622780136) rotate(0 51 12.5)">
        <text x="0" y="18" font-family="Virgil, Segoe UI Emoji" font-size="20px" fill="#000000" text-anchor="start" style="white-space: pre;" direction="ltr">endWorkOk</text>
    </g>
    <g stroke-linecap="round">
        <g transform="translate(362.27156335016656 258.81790946858564) rotate(0 -108.96076029230159 -43.68471112191723)">
            <path d="M0.4 -17.07 C7.33 -17.81, 39.58 -14.03, 42.05 -22.6 C44.52 -31.16, 66.86 -61.59, 15.2 -68.47 C-36.46 -75.35, -220.78 -64.46, -267.9 -63.86 M-0.85 -18.12 C6.42 -18.57, 41.75 -12.9, 44.29 -21.12 C46.83 -29.34, 66.37 -60.52, 14.38 -67.44 C-37.6 -74.35, -220.44 -63.03, -267.63 -62.61" stroke="#000000" stroke-width="1" fill="none"></path>
        </g>
        <g transform="translate(362.27156335016656 258.81790946858564) rotate(0 -108.96076029230159 -43.68471112191723)">
            <path d="M-239.85 -75.35 C-249.49 -70.14, -259.59 -66.1, -267.15 -61.86 M-240.45 -73.62 C-246.94 -71.31, -253.05 -67.59, -268.44 -63.53" stroke="#000000" stroke-width="1" fill="none"></path>
        </g>
        <g transform="translate(362.27156335016656 258.81790946858564) rotate(0 -108.96076029230159 -43.68471112191723)">
            <path d="M-239.12 -54.84 C-248.82 -56.55, -259.17 -59.43, -267.15 -61.86 M-239.72 -53.11 C-246.35 -55.67, -252.63 -56.84, -268.44 -63.53" stroke="#000000" stroke-width="1" fill="none"></path>
        </g>
    </g>
    <g stroke-linecap="round" transform="translate(297.0369022746903 317.32594485573105) rotate(0 27.642333984375 27.069686889648438)">
        <path d="M28.31 0.16 C33.9 -0.04, 42.39 3.06, 46.88 7.04 C51.36 11.02, 54.55 18.19, 55.22 24.03 C55.88 29.87, 54.23 37.29, 50.86 42.1 C47.48 46.92, 40.68 51.41, 34.97 52.91 C29.25 54.41, 21.85 53.22, 16.57 51.12 C11.3 49.02, 6 45.31, 3.32 40.32 C0.63 35.33, -0.97 26.88, 0.46 21.19 C1.89 15.5, 6.94 9.72, 11.89 6.19 C16.85 2.66, 27 0.92, 30.19 0.02 C33.38 -0.88, 30.9 0.27, 31.04 0.79 M33.12 1.34 C38.65 2.27, 47.49 5.23, 51.28 9.87 C55.06 14.51, 56.27 23.28, 55.83 29.19 C55.38 35.11, 52.98 41.27, 48.59 45.38 C44.21 49.48, 35.6 53.11, 29.5 53.81 C23.41 54.5, 16.6 52.63, 12.03 49.55 C7.46 46.46, 3.74 40.88, 2.1 35.29 C0.46 29.7, -0.03 21.58, 2.19 16.02 C4.41 10.46, 10.29 4.6, 15.44 1.92 C20.59 -0.76, 29.99 0.05, 33.08 -0.05 C36.17 -0.15, 33.9 0.82, 33.96 1.31" stroke="#000000" stroke-width="1" fill="none"></path>
    </g>
    <g transform="translate(289.7569580078125 291.723390534442) rotate(0 36 12.5)">
        <text x="0" y="18" font-family="Virgil, Segoe UI Emoji" font-size="20px" fill="#000000" text-anchor="start" style="white-space: pre;" direction="ltr">doMove</text>
    </g>
    <g stroke-linecap="round">
        <g transform="translate(347.0762537307143 371.8961811873705) rotate(0 34.55685291072135 38.3562972635572)">
            <path d="M0.11 0.93 C11.87 13.63, 58.77 62.6, 70.4 75.21 M-1.29 0.37 C10.38 13.29, 58.05 63.98, 69.8 76.34" stroke="#000000" stroke-width="1" fill="none"></path>
        </g>
        <g transform="translate(347.0762537307143 371.8961811873705) rotate(0 34.55685291072135 38.3562972635572)">
            <path d="M44.54 64 C49.39 67.04, 59.43 70.4, 70.11 77.13 M42.98 62.49 C50.05 67.34, 59.74 70.86, 69.88 77.33" stroke="#000000" stroke-width="1" fill="none"></path>
        </g>
        <g transform="translate(347.0762537307143 371.8961811873705) rotate(0 34.55685291072135 38.3562972635572)">
            <path d="M59.46 49.91 C59.86 57.06, 65.56 64.52, 70.11 77.13 M57.9 48.4 C60.62 57.29, 65.9 64.97, 69.88 77.33" stroke="#000000" stroke-width="1" fill="none"></path>
        </g>
    </g>
    <g stroke-linecap="round">
        <g transform="translate(210.3356408157998 341.4388353351899) rotate(0 39.41369667487529 -0.44733783074751443)">
            <path d="M0.63 -0.48 C13.8 -0.74, 66.45 -0.38, 79.32 -0.54 M-0.49 -1.78 C12.59 -1.33, 66.08 0.69, 78.99 0.88" stroke="#000000" stroke-width="1" fill="none"></path>
        </g>
        <g transform="translate(210.3356408157998 341.4388353351899) rotate(0 39.41369667487529 -0.44733783074751443)">
            <path d="M49.72 12.3 C59.34 6.66, 67.19 3.93, 80.49 -0.09 M49.69 9.54 C57.7 7.92, 63.67 5.14, 78.44 0.07" stroke="#000000" stroke-width="1" fill="none"></path>
        </g>
        <g transform="translate(210.3356408157998 341.4388353351899) rotate(0 39.41369667487529 -0.44733783074751443)">
            <path d="M50.3 -8.21 C59.91 -7.16, 67.57 -3.2, 80.49 -0.09 M50.27 -10.97 C58.25 -8.06, 64.1 -6.31, 78.44 0.07" stroke="#000000" stroke-width="1" fill="none"></path>
        </g>
    </g>
    <g stroke-linecap="round" transform="translate(478.2800238221917 315.8017090080198) rotate(0 27.642333984375 27.069686889648438)">
        <path d="M38.7 3.31 C43.77 5.25, 49.43 10.51, 51.88 15.54 C54.34 20.57, 54.92 27.76, 53.43 33.49 C51.95 39.23, 47.82 46.52, 42.95 49.95 C38.07 53.38, 30.16 54.59, 24.19 54.08 C18.22 53.56, 11.27 51, 7.12 46.84 C2.98 42.67, -0.27 34.91, -0.69 29.09 C-1.12 23.28, 1.01 16.77, 4.57 11.94 C8.13 7.12, 14.79 1.67, 20.67 0.13 C26.55 -1.4, 36.45 2.13, 39.85 2.74 C43.26 3.35, 41.18 3.33, 41.11 3.78 M30.56 0.97 C36.09 1.2, 44.85 4.1, 48.73 8.4 C52.62 12.69, 54.05 20.58, 53.88 26.75 C53.7 32.92, 51.34 41.16, 47.69 45.41 C44.05 49.65, 37.45 51.46, 31.99 52.21 C26.53 52.97, 19.99 52.56, 14.94 49.93 C9.9 47.3, 4.05 41.47, 1.73 36.43 C-0.59 31.39, -0.93 24.95, 1.03 19.67 C2.99 14.4, 8.12 8.12, 13.5 4.75 C18.88 1.38, 30.35 -0.05, 33.32 -0.55 C36.28 -1.04, 31.51 1.11, 31.29 1.76" stroke="#000000" stroke-width="1" fill="none"></path>
    </g>
    <g transform="translate(464.8221010396889 289.01504213790264) rotate(0 43.5 12.5)">
        <text x="0" y="18" font-family="Virgil, Segoe UI Emoji" font-size="20px" fill="#000000" text-anchor="start" style="white-space: pre;" direction="ltr">doMoveW</text>
    </g>
    <g stroke-linecap="round" transform="translate(394.96630311906677 458.1720093009886) rotate(0 27.642333984375 27.06968688964844)">
        <path d="M35.39 1.97 C41.02 3.07, 47.89 6.74, 51.16 11.68 C54.43 16.62, 55.9 25.6, 55 31.62 C54.09 37.64, 50.23 44.17, 45.74 47.81 C41.24 51.44, 33.85 53.32, 28.02 53.44 C22.18 53.56, 15.3 52.01, 10.75 48.55 C6.19 45.09, 2 38.48, 0.7 32.66 C-0.6 26.84, 0.39 18.86, 2.97 13.64 C5.54 8.42, 10.32 3.17, 16.15 1.35 C21.97 -0.47, 33.87 2.17, 37.89 2.71 C41.92 3.25, 40.34 4.24, 40.3 4.58 M37.5 2.71 C43.02 3.98, 48.83 7.57, 51.94 12.24 C55.04 16.91, 57.04 24.77, 56.14 30.73 C55.25 36.69, 51.26 43.84, 46.58 47.98 C41.89 52.12, 34.09 55.57, 28.03 55.57 C21.97 55.57, 14.72 51.89, 10.21 47.96 C5.7 44.04, 1.99 37.65, 0.95 32.01 C-0.08 26.38, 1.31 19.15, 4 14.15 C6.69 9.14, 11.54 4.19, 17.09 1.98 C22.64 -0.22, 33.85 0.88, 37.3 0.92 C40.75 0.96, 37.82 1.67, 37.77 2.22" stroke="#000000" stroke-width="1" fill="none"></path>
    </g>
    <g transform="translate(368.89631978968885 510.165524315637) rotate(0 59 12.5)">
        <text x="0" y="18" font-family="Virgil, Segoe UI Emoji" font-size="20px" fill="#000000" text-anchor="start" style="white-space: pre;" direction="ltr">doMoveTurn</text>
    </g>
    <g stroke-linecap="round">
        <g transform="translate(358.6895193084068 336.64707955130103) rotate(0 55.113229070650874 -0.29170786763459944)">
            <path d="M-0.4 1.09 C17.72 0.8, 90.18 -1.37, 108.54 -1.68 M1.59 0.62 C20.08 0.46, 92.72 -0.55, 110.63 -0.54" stroke="#000000" stroke-width="1" fill="none"></path>
        </g>
        <g transform="translate(358.6895193084068 336.64707955130103) rotate(0 55.113229070650874 -0.29170786763459944)">
            <path d="M84.34 7.94 C89.23 7.1, 98.77 3.11, 110.48 1.44 M81.58 9.82 C92.16 5.65, 102.75 1.52, 111.43 -0.34" stroke="#000000" stroke-width="1" fill="none"></path>
        </g>
        <g transform="translate(358.6895193084068 336.64707955130103) rotate(0 55.113229070650874 -0.29170786763459944)">
            <path d="M84.18 -12.58 C89.13 -7.59, 98.72 -5.75, 110.48 1.44 M81.42 -10.7 C92.01 -7.2, 102.67 -3.65, 111.43 -0.34" stroke="#000000" stroke-width="1" fill="none"></path>
        </g>
    </g>
    <g stroke-linecap="round">
        <g transform="translate(380.84364931572446 487.730892799839) rotate(0 -94.77817275885187 -56.47865452422432)">
            <path d="M3.72 -1.07 C-25.3 -2.5, -139.01 9.63, -171.56 -9.57 C-204.11 -28.78, -188.3 -98.34, -191.59 -116.29 M2.52 0.99 C-26.52 -0.15, -139.6 11.31, -172.07 -8 C-204.55 -27.3, -189.18 -96.74, -192.31 -114.84" stroke="#000000" stroke-width="1" fill="none"></path>
        </g>
        <g transform="translate(380.84364931572446 487.730892799839) rotate(0 -94.77817275885187 -56.47865452422432)">
            <path d="M-184.23 -85.14 C-184.51 -93.24, -186.61 -99.64, -193.57 -116.38 M-182.64 -86.34 C-185.69 -95.62, -189.9 -105.94, -192.77 -114.56" stroke="#000000" stroke-width="1" fill="none"></path>
        </g>
        <g transform="translate(380.84364931572446 487.730892799839) rotate(0 -94.77817275885187 -56.47865452422432)">
            <path d="M-204.75 -85.44 C-200.02 -93.55, -197.12 -99.88, -193.57 -116.38 M-203.16 -86.63 C-199.24 -95.73, -196.48 -105.95, -192.77 -114.56" stroke="#000000" stroke-width="1" fill="none"></path>
        </g>
    </g>
    <g stroke-linecap="round" transform="translate(631.4802191346917 233.35731203536358) rotate(0 27.642333984375 27.069686889648438)">
        <path d="M31.95 1.12 C37.38 1.33, 43.29 4.69, 47.14 8.64 C51 12.58, 54.54 19.13, 55.08 24.78 C55.61 30.43, 54.07 37.74, 50.36 42.54 C46.66 47.34, 38.77 52.3, 32.83 53.59 C26.89 54.89, 19.76 53.07, 14.72 50.29 C9.68 47.52, 4.78 42.1, 2.61 36.95 C0.44 31.81, 0.06 24.71, 1.71 19.43 C3.35 14.16, 7.42 8.53, 12.46 5.28 C17.51 2.04, 28.52 0.79, 31.98 -0.05 C35.44 -0.88, 33.41 -0.1, 33.23 0.28 M38.28 1.88 C43.81 3.6, 49.35 10.29, 52.08 15.48 C54.81 20.66, 56.05 27.57, 54.67 33.01 C53.29 38.45, 48.51 44.37, 43.81 48.11 C39.12 51.85, 32.24 55.84, 26.49 55.48 C20.74 55.12, 13.61 50.07, 9.32 45.96 C5.02 41.85, 1.3 36.19, 0.7 30.83 C0.09 25.47, 2.77 18.68, 5.69 13.82 C8.62 8.96, 12.74 3.84, 18.24 1.65 C23.74 -0.54, 35.2 0.71, 38.7 0.68 C42.21 0.64, 39.41 0.65, 39.25 1.45" stroke="#000000" stroke-width="1" fill="none"></path>
    </g>
    <g transform="translate(602.1208070943765 211.42657167891826) rotate(0 50.5 12.5)">
        <text x="0" y="18" font-family="Virgil, Segoe UI Emoji" font-size="20px" fill="#000000" text-anchor="start" style="white-space: pre;" direction="ltr">endWorkKo</text>
    </g>
    <g stroke-linecap="round" transform="translate(632.1317083925044 392.4448364494261) rotate(0 27.642333984375 27.06968688964844)">
        <path d="M40.03 2.54 C45.08 4.7, 50.7 10.19, 53.09 15.5 C55.48 20.82, 56.13 28.91, 54.39 34.46 C52.64 40.01, 47.57 45.57, 42.63 48.8 C37.69 52.04, 30.71 54.47, 24.76 53.88 C18.81 53.29, 10.91 49.61, 6.91 45.27 C2.92 40.94, 1.05 33.57, 0.78 27.88 C0.52 22.19, 1.87 15.54, 5.33 11.13 C8.79 6.72, 14.79 2.23, 21.54 1.41 C28.29 0.58, 41.16 4.63, 45.81 6.19 C50.46 7.76, 49.8 10.45, 49.43 10.78 M19.6 0.04 C24.74 -2.14, 32.47 -0.35, 37.83 2.13 C43.19 4.61, 48.89 9.97, 51.76 14.95 C54.64 19.93, 56.3 26.37, 55.09 32.02 C53.89 37.66, 49.3 45.16, 44.53 48.8 C39.77 52.44, 32.16 54.01, 26.5 53.85 C20.84 53.68, 15.04 51.48, 10.56 47.8 C6.08 44.12, 0.93 37.67, -0.38 31.79 C-1.68 25.9, -0.38 17.67, 2.75 12.47 C5.87 7.27, 15.81 2.43, 18.35 0.59 C20.89 -1.25, 17.66 0.72, 18 1.41" stroke="#000000" stroke-width="1" fill="none"></path>
    </g>
    <g transform="translate(605.706866664689 365.2332733390745) rotate(0 57.5 12.5)">
        <text x="0" y="18" font-family="Virgil, Segoe UI Emoji" font-size="20px" fill="#000000" text-anchor="start" style="white-space: pre;" direction="ltr">handleAlarm</text>
    </g>
    <g stroke-linecap="round" transform="translate(476.8217718690668 143.08067018966045) rotate(0 27.642333984375 27.069686889648438)">
        <path d="M19.46 0.46 C24.63 -1.66, 32.51 -0.3, 37.91 2.09 C43.31 4.47, 49.03 9.74, 51.87 14.77 C54.71 19.81, 56.17 26.62, 54.95 32.27 C53.73 37.92, 49.29 45.07, 44.55 48.68 C39.82 52.3, 32.28 54.12, 26.53 53.94 C20.79 53.75, 14.52 51.33, 10.07 47.58 C5.62 43.83, 0.97 37.28, -0.17 31.44 C-1.3 25.6, -0.75 17.82, 3.24 12.53 C7.24 7.25, 19.56 1.75, 23.81 -0.28 C28.06 -2.31, 28.54 -0.28, 28.73 0.34 M31.97 1.4 C37.21 1.86, 43.27 4.69, 47.19 8.96 C51.11 13.23, 55.37 20.9, 55.5 27.02 C55.62 33.13, 51.73 41.31, 47.95 45.63 C44.17 49.96, 38.52 52.04, 32.82 52.96 C27.13 53.88, 19.18 53.96, 13.79 51.16 C8.39 48.36, 2.43 41.67, 0.47 36.15 C-1.5 30.63, -0.34 23.28, 1.98 18.04 C4.29 12.79, 9.16 7.55, 14.33 4.67 C19.51 1.79, 30.04 1.41, 33.03 0.76 C36.02 0.11, 32.47 0.14, 32.25 0.76" stroke="#000000" stroke-width="1" fill="none"></path>
    </g>
    <g transform="translate(438.9766420553139 117.53103334884014) rotate(0 77 12.5)">
        <text x="0" y="18" font-family="Virgil, Segoe UI Emoji" font-size="20px" fill="#000000" text-anchor="start" style="white-space: pre;" direction="ltr">handleStopPath</text>
    </g>
    <g stroke-linecap="round">
        <g transform="translate(512.4737710292911 377.7670846705875) rotate(0 -176.53803059435776 91.57458858824384)">
            <path d="M-0.76 -1.1 C-2.48 26.19, 18.31 133.1, -9.86 164.55 C-38.04 196, -114.22 188.26, -169.8 187.61 C-225.39 186.95, -313.48 192.93, -343.38 160.62 C-373.28 128.32, -348.22 21.53, -349.19 -6.22 M1.04 0.94 C-0.9 27.81, 17.11 131.45, -10.96 162.79 C-39.02 194.14, -112.01 189.15, -167.37 188.99 C-222.73 188.83, -313.15 194.38, -343.13 161.84 C-373.1 129.31, -346.39 21.95, -347.21 -6.22" stroke="#000000" stroke-width="1" fill="none"></path>
        </g>
        <g transform="translate(512.4737710292911 377.7670846705875) rotate(0 -176.53803059435776 91.57458858824384)">
            <path d="M-341.74 22.42 C-341.43 11.52, -344.85 3.14, -346.84 -6.87 M-339.93 23.68 C-341.88 15.81, -343.72 8.58, -346.65 -6.64" stroke="#000000" stroke-width="1" fill="none"></path>
        </g>
        <g transform="translate(512.4737710292911 377.7670846705875) rotate(0 -176.53803059435776 91.57458858824384)">
            <path d="M-362.15 20.3 C-354.92 10.25, -351.43 2.59, -346.84 -6.87 M-360.34 21.56 C-357.44 14.27, -354.43 7.54, -346.65 -6.64" stroke="#000000" stroke-width="1" fill="none"></path>
        </g>
    </g>
    <g stroke-linecap="round">
        <g transform="translate(467.92779414130956 168.29544031090023) rotate(0 -185.94029855761084 4.554465424185935)">
            <path d="M-0.55 0.55 C-62.84 2.26, -310.58 7.87, -372.74 9.31 M1.36 -0.2 C-61.1 1.27, -310.65 6.5, -373.24 7.75" stroke="#000000" stroke-width="1" fill="none"></path>
        </g>
        <g transform="translate(467.92779414130956 168.29544031090023) rotate(0 -185.94029855761084 4.554465424185935)">
            <path d="M-344.35 -1.67 C-354.26 1.08, -365.17 5.77, -373 8.94 M-344.75 -2.88 C-351.88 0.22, -360.08 1.9, -373.91 8.54" stroke="#000000" stroke-width="1" fill="none"></path>
        </g>
        <g transform="translate(467.92779414130956 168.29544031090023) rotate(0 -185.94029855761084 4.554465424185935)">
            <path d="M-343.93 18.85 C-353.84 13.75, -364.91 10.59, -373 8.94 M-344.32 17.64 C-351.7 15.25, -360.02 11.44, -373.91 8.54" stroke="#000000" stroke-width="1" fill="none"></path>
        </g>
    </g>
    <g stroke-linecap="round">
        <g transform="translate(507.0885805318764 282.7783401725706) rotate(0 0.256077704949206 -39.627508249087256)">
            <path d="M-1.07 -0.95 C-1.27 -14.39, -0.91 -67.39, -0.68 -80.42 M0.57 1.17 C0.71 -12.12, 1.78 -65.41, 1.63 -79.12" stroke="#000000" stroke-width="1" fill="none"></path>
        </g>
        <g transform="translate(507.0885805318764 282.7783401725706) rotate(0 0.256077704949206 -39.627508249087256)">
            <path d="M10.12 -52.16 C7.45 -60.29, 6.1 -72.23, 1.28 -80.47 M11.8 -51.23 C7.92 -59.42, 6.68 -65.79, 1.29 -79.84" stroke="#000000" stroke-width="1" fill="none"></path>
        </g>
        <g transform="translate(507.0885805318764 282.7783401725706) rotate(0 0.256077704949206 -39.627508249087256)">
            <path d="M-10.4 -52.29 C-6.03 -60.2, -0.34 -72.09, 1.28 -80.47 M-8.72 -51.36 C-6.78 -59.7, -2.21 -66.02, 1.29 -79.84" stroke="#000000" stroke-width="1" fill="none"></path>
        </g>
    </g>
    <g stroke-linecap="round">
        <g transform="translate(536.4472231100015 322.84517366866436) rotate(0 44.78798660267145 -30.258708557114005)">
            <path d="M1.11 0.39 C15.59 -9.7, 72.72 -50.94, 87.25 -60.91 M0.23 -0.45 C15.03 -10.41, 74.81 -50.42, 89.34 -60" stroke="#000000" stroke-width="1" fill="none"></path>
        </g>
        <g transform="translate(536.4472231100015 322.84517366866436) rotate(0 44.78798660267145 -30.258708557114005)">
            <path d="M72.21 -37.82 C75.55 -44.3, 83.97 -52.34, 88.48 -60.9 M72.27 -36.8 C76.7 -42.36, 81.7 -50.29, 88.94 -59.39" stroke="#000000" stroke-width="1" fill="none"></path>
        </g>
        <g transform="translate(536.4472231100015 322.84517366866436) rotate(0 44.78798660267145 -30.258708557114005)">
            <path d="M60.84 -54.9 C67.92 -55.81, 80.11 -58.17, 88.48 -60.9 M60.91 -53.89 C68.49 -54.71, 76.7 -57.83, 88.94 -59.39" stroke="#000000" stroke-width="1" fill="none"></path>
        </g>
    </g>
    <g stroke-linecap="round">
        <g transform="translate(540.080890102189 359.2961624381956) rotate(0 41.5560670038592 26.50583992411383)">
            <path d="M-0.1 -0.91 C14 7.86, 70.76 43.96, 84.72 52.96 M-1.61 1.23 C12.4 10.07, 70.23 45.14, 84.3 53.92" stroke="#000000" stroke-width="1" fill="none"></path>
        </g>
        <g transform="translate(540.080890102189 359.2961624381956) rotate(0 41.5560670038592 26.50583992411383)">
            <path d="M53.4 49.58 C62.25 49.68, 71.65 50.38, 85.44 53.33 M54.54 47.8 C65.86 49.29, 78.59 52.24, 85.18 54.18" stroke="#000000" stroke-width="1" fill="none"></path>
        </g>
        <g transform="translate(540.080890102189 359.2961624381956) rotate(0 41.5560670038592 26.50583992411383)">
            <path d="M64.14 32.1 C69.69 37.64, 75.74 43.8, 85.44 53.33 M65.28 30.31 C72.54 38.62, 81.11 48.34, 85.18 54.18" stroke="#000000" stroke-width="1" fill="none"></path>
        </g>
    </g>
    <g stroke-linecap="round">
        <g transform="translate(694.4390247103038 259.9474075553831) rotate(0 34.58948705682161 83.0492660738714)">
            <path d="M0.85 1.11 C10.88 4.27, 50.35 -4.47, 60.72 20.14 C71.08 44.75, 72.42 124.62, 63.04 148.75 C53.66 172.89, 14.46 162, 4.45 164.95 M-0.17 0.65 C9.63 4.01, 49.14 -5.74, 59.62 18.6 C70.1 42.94, 71.79 122.23, 62.69 146.7 C53.6 171.18, 14.73 162.07, 5.06 165.45" stroke="#000000" stroke-width="1" fill="none"></path>
        </g>
        <g transform="translate(694.4390247103038 259.9474075553831) rotate(0 34.58948705682161 83.0492660738714)">
            <path d="M34.43 153.03 C25.03 159.15, 14.61 163.14, 3.16 164.12 M33.29 154.47 C23.15 158.58, 13.79 161.23, 4.45 165.1" stroke="#000000" stroke-width="1" fill="none"></path>
        </g>
        <g transform="translate(694.4390247103038 259.9474075553831) rotate(0 34.58948705682161 83.0492660738714)">
            <path d="M35.68 173.51 C25.65 172.56, 14.79 169.47, 3.16 164.12 M34.54 174.95 C23.85 172.39, 14.09 168.34, 4.45 165.1" stroke="#000000" stroke-width="1" fill="none"></path>
        </g>
    </g>
    <g stroke-linecap="round" transform="translate(36.407317030821446 16.343299646431205) rotate(0 18.262456876341986 7.78969646534722)">
        <path d="M-0.72 -1.19 L34.8 0.26 L35.23 14.95 L1.81 15.09" stroke="none" stroke-width="0" fill="#fa5252"></path>
        <path d="M1.68 -0.1 C14.92 1.2, 26.77 1.94, 36.88 -0.37 M-0.4 -0.13 C8.76 -0.49, 16.94 -1.14, 36.17 0.3 M38.03 -0.59 C37.24 4.6, 35.43 10.9, 37.7 14.87 M36.05 0.44 C36.87 2.89, 37.16 6.69, 37.15 15.54 M38.1 16.73 C27.15 16.05, 14.44 13.89, 1.62 13.64 M36.34 16.07 C23.78 15.52, 11.87 15.62, -0.05 16.4 M0.52 17.12 C-0.67 10.38, 0.56 2.33, 1.49 1.26 M0.48 15.48 C-0.45 11.38, 0.36 7.12, -0.04 0.61" stroke="#c92a2a" stroke-width="4" fill="none"></path>
    </g>
    <g transform="translate(90.84206765524311 10) rotate(0 38.5 12.5)">
        <text x="0" y="18" font-family="Virgil, Segoe UI Emoji" font-size="20px" fill="#c92a2a" text-anchor="start" style="white-space: pre;" direction="ltr">request</text>
    </g>
    <g stroke-linecap="round" transform="translate(38.96837755182406 52.70159079466339) rotate(0 18.262456876341986 7.78969646534722)">
        <path d="M-1.73 0.26 L35.23 -0.63 L38.34 15.09 L-0.94 15.75" stroke="none" stroke-width="0" fill="#40c057"></path>
        <path d="M1.42 1.18 C10.51 1.94, 21.82 -0.35, 35.37 1.89 M-0.1 -0.27 C12.36 -0.87, 25.9 0.35, 36.81 -0.63 M37.34 -0.51 C35.68 6.54, 37.85 11.03, 35.04 14.29 M37 -0.3 C37.2 4.57, 37.06 8.49, 36.46 15.54 M37.82 16.01 C24.36 14.06, 15.33 13.85, 0.79 16.71 M36.17 15.25 C23 15.53, 9.17 16.58, 0.81 15.11 M-0.75 16.31 C0.43 8.22, 1.44 4.89, -0.28 -0.14 M-0.46 15.77 C0.25 12.03, -0.14 8.43, -0.28 -0.46" stroke="#2b8a3e" stroke-width="4" fill="none"></path>
    </g>
    <g transform="translate(94.2853643417589 45.84969766074914) rotate(0 23 12.5)">
        <text x="0" y="18" font-family="Virgil, Segoe UI Emoji" font-size="20px" fill="#2b8a3e" text-anchor="start" style="white-space: pre;" direction="ltr">reply</text>
    </g>
    <g transform="translate(57.36165050835538 227.68170380034326) rotate(0 66 12.5)">
        <text x="0" y="18" font-family="Virgil, Segoe UI Emoji" font-size="20px" fill="#c92a2a" text-anchor="start" style="white-space: pre;" direction="ltr">doPath(path)</text>
    </g>
    <g transform="translate(284.34654004128544 572.8537573117685) rotate(0 53.5 12.5)">
        <text x="0" y="18" font-family="Virgil, Segoe UI Emoji" font-size="20px" fill="#2b8a3e" text-anchor="start" style="white-space: pre;" direction="ltr">stepDone()</text>
    </g>
    <g transform="translate(563.4085937627235 297.6062695975548) rotate(0 46.99999999999997 12.5)">
        <text x="0" y="18" font-family="Virgil, Segoe UI Emoji" font-size="20px" fill="#2b8a3e" text-anchor="start" style="white-space: pre;" direction="ltr">stepFail()</text>
    </g>
    <g stroke-linecap="round" transform="translate(38.55143290303846 89.893210824547) rotate(0 18.262456876341986 7.78969646534722)">
        <path d="M1.71 1.06 L38.3 1.45 L36.52 16.32 L1.84 15.38" stroke="none" stroke-width="0" fill="#fab005"></path>
        <path d="M1.51 0.97 C13.54 -0.87, 27.23 -0.91, 36.9 1.55 M-0.51 -0.85 C10.43 -0.97, 20.17 -0.66, 37.27 0.48 M36.58 -1.23 C35.65 6.92, 37.29 11.08, 35.34 16.48 M35.99 -0.26 C36.39 4.79, 37.06 10.55, 36.36 14.85 M38.45 13.6 C21.64 14.63, 8.98 15.57, 1.62 14.01 M37.48 14.86 C28.02 15.51, 19.81 16.01, -0.95 14.91 M-1.22 15.24 C0.57 11.38, 0.66 3.97, 1.41 -1.24 M-0.28 15.09 C-0.09 11.73, 0.46 9.05, -0.69 0.04" stroke="#e67700" stroke-width="4" fill="none"></path>
    </g>
    <g transform="translate(93.01156485426367 83.65596796575034) rotate(0 27.5 12.5)">
        <text x="0" y="18" font-family="Virgil, Segoe UI Emoji" font-size="20px" fill="#e67700" text-anchor="start" style="white-space: pre;" direction="ltr">event</text>
    </g>
    <g transform="translate(767.3128748867157 324.4058878981262) rotate(0 35 12.5)">
        <text x="0" y="18" font-family="Virgil, Segoe UI Emoji" font-size="20px" fill="#e67700" text-anchor="start" style="white-space: pre;" direction="ltr">alarm()</text>
    </g>
    <g transform="translate(466.90807397945747 239.48426228908716) rotate(0 54 12.5)">
        <text x="0" y="18" font-family="Virgil, Segoe UI Emoji" font-size="20px" fill="#c92a2a" text-anchor="start" style="white-space: pre;" direction="ltr">stopPath()</text>
    </g>
    <g transform="translate(535.8930790197801 386.2558359197996) rotate(0 35 12.5)">
        <text x="0" y="18" font-family="Virgil, Segoe UI Emoji" font-size="20px" fill="#e67700" text-anchor="start" style="white-space: pre;" direction="ltr">alarm()</text>
    </g>
</svg>